# Blender 4.5.1 LTS
# www.blender.org
mtllib fish.mtl
o Cube.018
v 0.282879 3.047607 -0.528164
v 0.164701 3.194971 -0.576255
v 0.252069 3.046788 -0.636849
v 0.160582 3.194885 -0.587078
v 0.872809 2.985561 -0.500133
v 0.775825 3.221480 -0.506425
v 0.871335 2.984788 -0.607934
v 0.774590 3.220707 -0.601851
v 0.575696 2.892786 -0.685504
v 0.510886 3.315419 -0.695760
v 0.589603 2.894399 -0.471545
v 0.530501 3.317032 -0.483817
v 0.179656 3.089602 -0.589556
v 0.173649 3.089476 -0.605242
v 0.929215 3.083907 -0.646866
v 0.930531 3.085006 -0.497470
v 0.511131 3.127303 -0.411018
v 0.478713 3.124603 -0.762966
v 0.266297 3.047198 -0.583621
v 0.164255 3.194962 -0.577403
v 0.872245 2.985174 -0.552932
v 0.775798 3.221093 -0.551715
v 0.517457 3.316226 -0.592590
v 0.579783 2.893592 -0.581380
v 0.930132 3.084456 -0.568580
v 0.178254 3.089573 -0.593138
v 0.408190 2.930939 -0.657811
v 0.303765 3.241696 -0.514682
v 0.269895 3.240639 -0.646978
v 0.434091 2.931996 -0.515815
v 0.236668 3.110488 -0.692263
v 0.293646 3.112113 -0.485950
v 0.419889 2.931468 -0.588368
v 0.284456 3.241167 -0.583341
v 0.609704 3.290466 -0.660868
v 0.736505 2.939980 -0.484226
v 0.733032 2.938787 -0.638044
v 0.618077 3.291659 -0.502204
v 0.721591 3.106154 -0.452878
v 0.714899 3.104255 -0.688049
v 0.611840 3.291063 -0.583145
v 0.732610 2.939383 -0.555096
vn -0.7576 -0.5923 0.2741
vn -0.8236 0.4900 0.2857
vn -0.8829 0.4531 -0.1230
vn -0.8724 -0.4421 -0.2085
vn 0.3156 0.0712 -0.9462
vn 0.3792 0.7654 -0.5200
vn 0.5020 0.7697 -0.3944
vn 0.8085 0.0978 -0.5803
vn 0.9873 0.1586 -0.0119
vn 0.5374 0.8432 -0.0177
vn 0.4598 0.7251 0.5126
vn 0.8346 0.1287 0.5356
vn -0.4444 -0.1061 0.8895
vn -0.4370 0.6710 0.5990
vn -0.7296 0.4519 0.5133
vn -0.7083 -0.5032 0.4950
vn 0.3008 -0.9537 -0.0033
vn 0.6297 -0.7769 -0.0024
vn 0.5450 -0.6410 0.5405
vn 0.3041 -0.7232 0.6201
vn -0.3290 0.9422 0.0633
vn 0.3292 0.9439 -0.0247
vn -0.0288 0.9996 0.0080
vn -0.0031 0.8238 0.5669
vn 0.3429 0.7967 0.4976
vn -0.4230 -0.9017 0.0890
vn 0.0245 -0.9996 0.0149
vn 0.0210 -0.7952 0.6060
vn -0.4131 -0.7622 0.4983
vn 0.1994 0.0853 0.9762
vn -0.0805 0.0382 0.9960
vn -0.5371 -0.1083 -0.8365
vn -0.4601 0.7421 -0.4875
vn 0.0144 0.8092 -0.5874
vn -0.0240 0.0181 -0.9995
vn -0.4122 -0.8034 -0.4297
vn 0.0741 -0.8007 -0.5945
vn -0.5587 -0.6682 0.4912
vn 0.3413 -0.7608 -0.5520
vn 0.5537 -0.7122 -0.4314
vn -0.5181 -0.8439 0.1391
vn -0.5693 -0.7899 -0.2280
vt 0.633450 0.475608
vt 0.657020 0.536721
vt 0.655923 0.536945
vt 0.632072 0.475889
vt 0.285787 0.571217
vt 0.367105 0.672986
vt 0.248198 0.643536
vt 0.134202 0.588637
vt 0.142043 0.587039
vt 0.253714 0.642412
vt 0.259231 0.641289
vt 0.149884 0.585442
vt 0.595976 0.499230
vt 0.595630 0.581651
vt 0.657151 0.536694
vt 0.633861 0.475525
vt 0.267115 0.471094
vt 0.158948 0.537217
vt 0.164464 0.536093
vt 0.275628 0.469361
vt 0.588085 0.583188
vt 0.375617 0.671253
vt 0.454253 0.664092
vt 0.465762 0.661748
vt 0.384130 0.669519
vt 0.465019 0.416951
vt 0.360352 0.418861
vt 0.371862 0.416517
vt 0.472564 0.415414
vt 0.312896 0.565696
vt 0.464797 0.541437
vt 0.572781 0.503954
vt 0.580540 0.584724
vt 0.442743 0.666436
vt 0.426261 0.549284
vt 0.457475 0.418487
vt 0.348843 0.421205
vt 0.531726 0.418026
vt 0.258602 0.472828
vt 0.153432 0.538340
vt 0.525884 0.419215
vt 0.520041 0.420405
s 1
usemtl Material.001
f 26/1/1 20/2/2 4/3/3 14/4/4
f 40/5/5 35/6/6 8/7/7 15/8/8
f 25/9/9 22/10/10 6/11/11 16/12/12
f 32/13/13 28/14/14 2/15/15 13/16/16
f 42/17/17 21/18/18 5/19/19 36/20/20
f 34/21/21 20/2/2 2/15/15 28/14/14
f 41/22/22 23/23/23 12/24/24 38/25/25
f 33/26/26 24/27/27 11/28/28 30/29/29
f 39/30/30 38/25/25 12/24/24 17/31/31
f 31/32/32 29/33/33 10/34/34 18/35/35
f 27/36/36 31/32/32 18/35/35 9/37/37
f 36/20/20 39/30/30 17/31/31 11/28/28
f 30/29/29 32/13/13 13/16/16 1/38/38
f 21/18/18 25/9/9 16/12/12 5/19/19
f 37/39/39 40/5/5 15/8/8 7/40/40
f 19/41/41 26/1/1 14/4/4 3/42/42
f 1/38/38 13/16/16 26/1/1 19/41/41
f 7/40/40 15/8/8 25/9/9 21/18/18
f 27/36/36 9/37/37 24/27/27 33/26/26
f 35/6/6 10/34/34 23/23/23 41/22/22
f 29/33/33 4/3/3 20/2/2 34/21/21
f 37/39/39 7/40/40 21/18/18 42/17/17
f 15/8/8 8/7/7 22/10/10 25/9/9
f 13/16/16 2/15/15 20/2/2 26/1/1
f 10/34/34 29/33/33 34/21/21 23/23/23
f 3/42/42 27/36/36 33/26/26 19/41/41
f 11/28/28 17/31/31 32/13/13 30/29/29
f 3/42/42 14/4/4 31/32/32 27/36/36
f 14/4/4 4/3/3 29/33/33 31/32/32
f 19/41/41 33/26/26 30/29/29 1/38/38
f 23/23/23 34/21/21 28/14/14 12/24/24
f 17/31/31 12/24/24 28/14/14 32/13/13
f 9/37/37 37/39/39 42/17/17 24/27/27
f 8/7/7 35/6/6 41/22/22 22/10/10
f 9/37/37 18/35/35 40/5/5 37/39/39
f 5/19/19 16/12/12 39/30/30 36/20/20
f 16/12/12 6/11/11 38/25/25 39/30/30
f 22/10/10 41/22/22 38/25/25 6/11/11
f 24/27/27 42/17/17 36/20/20 11/28/28
f 18/35/35 10/34/34 35/6/6 40/5/5
o Cube.019
v -0.099673 2.724576 -0.548901
v -0.187661 3.461286 -0.559309
v -0.092607 2.728628 -0.576898
v -0.179794 3.465339 -0.579928
v 0.173834 3.054314 -0.582007
v 0.167564 3.210347 -0.570843
v 0.188198 3.081853 -0.603873
v 0.184203 3.189408 -0.587937
v 0.150665 2.980945 -0.585481
v 0.099293 2.921694 -0.584596
v 0.044604 2.851583 -0.578495
v 0.000187 2.802177 -0.580798
v -0.073837 3.456407 -0.584380
v 0.037282 3.374739 -0.579332
v 0.083217 3.322402 -0.583003
v 0.138406 3.273059 -0.581132
v -0.007065 2.798124 -0.557954
v 0.038048 2.847529 -0.553618
v 0.092351 2.917680 -0.554715
v 0.137724 2.976874 -0.565093
v 0.125665 3.268989 -0.562063
v 0.076565 3.318388 -0.556104
v 0.030186 3.370685 -0.557228
v -0.081448 3.452354 -0.563988
v -0.144265 2.737710 -0.544114
v -0.053193 3.029573 -0.551941
v -0.119238 3.284482 -0.545357
v -0.203941 3.414032 -0.551784
v -0.195975 3.418085 -0.571915
v -0.111491 3.288535 -0.564205
v -0.045929 3.033626 -0.574510
v -0.137006 2.741763 -0.570957
v 0.185132 3.180996 -0.588790
v 0.186299 3.153787 -0.591667
v 0.187567 3.126578 -0.595424
v 0.188867 3.099368 -0.600156
v 0.168734 3.198144 -0.572073
v 0.170241 3.158671 -0.576152
v 0.171983 3.119198 -0.582037
v 0.173737 3.079725 -0.589832
v 0.126112 3.219858 -0.565388
v 0.127330 3.170727 -0.570271
v 0.129397 3.121596 -0.577254
v 0.135051 3.026005 -0.571457
v 0.078517 3.248794 -0.554603
v 0.078908 3.179200 -0.561568
v 0.081523 3.109606 -0.571758
v 0.088424 2.987274 -0.559042
v 0.031186 3.315150 -0.552101
v 0.056324 3.170085 -0.562152
v 0.058275 3.114550 -0.570449
v 0.030337 2.919616 -0.548614
v -0.062694 3.401324 -0.555562
v -0.104499 3.292048 -0.545624
v -0.037332 3.030155 -0.552674
v -0.075859 2.805135 -0.553132
v -0.055097 3.405377 -0.575668
v -0.096806 3.296101 -0.564579
v -0.030164 3.034208 -0.575609
v -0.068361 2.809188 -0.575090
v 0.038142 3.319204 -0.573957
v 0.065132 3.174138 -0.582847
v 0.067271 3.118603 -0.590545
v 0.037133 2.923669 -0.572782
v 0.086130 3.252808 -0.580525
v 0.086387 3.183214 -0.586989
v 0.089029 3.113620 -0.596575
v 0.095877 2.991288 -0.588377
v 0.139515 3.223928 -0.583337
v 0.140402 3.174798 -0.588348
v 0.142512 3.125667 -0.594845
v 0.147996 3.030076 -0.592091
v -0.000602 3.140046 -0.556597
v 0.006534 3.144099 -0.576718
v 0.186899 3.140182 -0.593469
v 0.171078 3.138934 -0.578879
v 0.128361 3.146161 -0.573343
v 0.080369 3.144403 -0.565574
v 0.057577 3.142317 -0.565335
v 0.014799 3.140628 -0.557834
v 0.021832 3.144681 -0.578373
v 0.066315 3.146370 -0.585927
v 0.087727 3.148417 -0.590815
v 0.141430 3.150232 -0.591207
v -0.141865 2.833899 -0.546781
v -0.134244 2.837953 -0.569121
v 0.188196 3.112973 -0.597704
v 0.172983 3.099461 -0.585568
v 0.131548 3.073800 -0.584981
v 0.083889 3.048440 -0.571853
v 0.051580 3.005352 -0.561821
v -0.110532 2.847592 -0.547741
v -0.102854 2.851645 -0.568598
v 0.060488 3.009405 -0.585198
v 0.091621 3.052454 -0.601221
v 0.144530 3.077872 -0.604347
v -0.100994 2.961388 -0.543450
v -0.093377 2.965441 -0.564508
v 0.187877 3.119588 -0.596585
v 0.172470 3.109058 -0.583832
v 0.130509 3.097041 -0.581847
v 0.082535 3.078182 -0.578504
v 0.053472 3.058449 -0.574455
v -0.077197 2.968705 -0.544044
v -0.069679 2.972758 -0.565463
v 0.062631 3.062502 -0.598304
v 0.090347 3.082196 -0.603123
v 0.143621 3.101112 -0.599282
vn -0.8629 -0.0912 0.4971
vn -0.5550 0.6692 0.4940
vn -0.3487 0.6974 -0.6262
vn -0.6637 -0.1219 -0.7380
vn -0.0303 0.0634 -0.9975
vn 0.6909 0.5270 -0.4950
vn 0.9116 0.1718 -0.3734
vn 0.9233 0.0761 -0.3765
vn 0.5558 0.1887 0.8096
vn 0.4391 -0.0520 0.8969
vn 0.0504 0.1019 0.9935
vn 0.2205 0.6822 0.6972
vn 0.7500 -0.4200 -0.5110
vn 0.8519 -0.0841 -0.5169
vn 0.6175 -0.0519 0.7848
vn 0.6059 -0.2631 0.7508
vn 0.3178 0.7285 -0.6069
vn 0.5058 0.3298 0.7971
vn 0.5002 0.5649 -0.6562
vn 0.4536 0.3925 0.8001
vn 0.5405 0.5822 -0.6074
vn 0.4240 0.4966 0.7574
vn 0.1697 -0.7220 -0.6708
vn 0.4954 -0.5097 -0.7034
vn 0.4955 -0.5496 0.6726
vn 0.1212 -0.8131 0.5693
vn 0.5534 -0.4686 -0.6887
vn 0.5270 -0.4625 0.7131
vn 0.5152 -0.5080 -0.6903
vn 0.5620 -0.3665 0.7415
vn 0.1370 -0.0743 0.9878
vn 0.0727 -0.0484 0.9962
vn 0.0583 0.0325 0.9978
vn -0.0648 -0.1108 -0.9917
vn -0.1234 -0.0439 -0.9914
vn -0.0652 0.0323 -0.9973
vn -0.0607 -0.1203 -0.9909
vn -0.0455 -0.1235 -0.9913
vn -0.1202 0.0859 -0.9890
vn -0.1282 0.1692 -0.9772
vn -0.0109 0.1656 -0.9861
vn -0.0136 0.1652 -0.9862
vn -0.1210 0.1296 -0.9841
vn -0.0818 0.0882 -0.9927
vn -0.0149 0.1066 -0.9942
vn -0.0135 0.1321 -0.9911
vn -0.0917 -0.0192 -0.9956
vn -0.2079 -0.0154 -0.9780
vn -0.2336 0.1235 -0.9645
vn -0.1974 0.0896 -0.9762
vn -0.1426 0.0479 -0.9886
vn -0.0631 0.0317 -0.9975
vn -0.0848 -0.0537 -0.9950
vn -0.1658 0.0271 -0.9858
vn -0.1352 0.0432 -0.9899
vn -0.0573 -0.0248 -0.9981
vn -0.5962 -0.4145 -0.6875
vn -0.6070 0.3101 -0.7317
vn -0.5596 0.2275 -0.7969
vn -0.4392 -0.0348 -0.8977
vn -0.4793 -0.3481 -0.8057
vn 0.0323 0.0266 0.9991
vn 0.0579 0.0105 0.9983
vn 0.1264 0.0459 0.9909
vn 0.1515 -0.1184 0.9813
vn 0.1517 -0.0077 0.9884
vn 0.0765 0.0485 0.9959
vn 0.0965 -0.0981 0.9905
vn 0.0432 -0.0570 0.9974
vn 0.0461 0.0177 0.9988
vn 0.1340 -0.0339 0.9904
vn 0.0806 0.1361 0.9874
vn 0.1176 -0.0223 0.9928
vn 0.1213 -0.1628 0.9792
vn 0.0904 -0.1398 0.9861
vn 0.0711 -0.0990 0.9925
vn 0.1151 0.1892 0.9752
vn 0.1213 -0.1217 0.9851
vn 0.1276 -0.1685 0.9774
vn 0.1309 -0.1362 0.9820
vn 0.1335 -0.1060 0.9854
vn 0.4409 0.0808 0.8939
vn 0.4046 -0.1350 0.9045
vn 0.4071 -0.1338 0.9035
vn 0.4103 -0.1137 0.9048
vn 0.4150 -0.0900 0.9054
vn -0.6952 -0.4991 0.5173
vn -0.6285 0.4515 0.6333
vn -0.7136 0.3325 0.6166
vn -0.6619 -0.4843 0.5722
vn -0.6423 -0.0476 0.7649
vn 0.9269 -0.2365 -0.2914
vn 0.9277 0.1269 -0.3511
vn 0.9307 0.1013 -0.3515
vn 0.9284 0.0825 -0.3622
vn 0.9282 0.0732 -0.3648
vn -0.7982 0.1237 0.5896
vn -0.6397 0.1411 -0.7556
vn 0.0615 -0.0437 -0.9971
vn 0.9458 -0.0062 -0.3246
vn 0.4055 -0.0822 0.9104
vn 0.0492 0.0035 0.9988
vn 0.1091 0.0888 0.9901
vn 0.0533 0.1989 0.9786
vn 0.0511 0.1125 0.9923
vn -0.0427 0.0116 -0.9990
vn -0.1414 -0.0956 -0.9853
vn -0.0616 -0.1434 -0.9877
vt 0.905087 0.592433
vt 0.906571 0.612649
vt 0.895068 0.615206
vt 0.893584 0.594990
vt 0.682379 0.521623
vt 0.688237 0.541616
vt 0.659306 0.512542
vt 0.658022 0.509193
vt 0.672183 0.518343
vt 0.670320 0.513484
vt 0.825328 0.591071
vt 0.835854 0.612068
vt 0.653408 0.422743
vt 0.646764 0.468700
vt 0.653987 0.454741
vt 0.663477 0.418321
vt 0.824947 0.614492
vt 0.698307 0.537193
vt 0.717602 0.555542
vt 0.728228 0.550999
vt 0.746493 0.570905
vt 0.756736 0.566444
vt 0.787927 0.211083
vt 0.740311 0.271959
vt 0.750555 0.267499
vt 0.798730 0.206379
vt 0.689618 0.356571
vt 0.699861 0.352111
vt 0.669825 0.392479
vt 0.680451 0.387935
vt 0.692449 0.517200
vt 0.719930 0.522678
vt 0.750115 0.543845
vt 0.814422 0.593496
vt 0.739871 0.548305
vt 0.709304 0.527222
vt 0.678123 0.420799
vt 0.659266 0.442736
vt 0.688962 0.457793
vt 0.692709 0.470581
vt 0.670663 0.481636
vt 0.667736 0.471644
vt 0.696858 0.484741
vt 0.701007 0.498901
vt 0.676521 0.501629
vt 0.673592 0.491633
vt 0.700752 0.385240
vt 0.700584 0.446118
vt 0.704272 0.469734
vt 0.707583 0.481034
vt 0.710894 0.492333
vt 0.774158 0.266162
vt 0.804103 0.319669
vt 0.755775 0.410411
vt 0.739761 0.465663
vt 0.847389 0.542464
vt 0.811897 0.210872
vt 0.815329 0.313345
vt 0.763858 0.408024
vt 0.747844 0.463276
vt 0.854900 0.538590
vt 0.710996 0.380780
vt 0.784402 0.261702
vt 0.710827 0.441658
vt 0.714516 0.465274
vt 0.766579 0.405707
vt 0.814907 0.314965
vt 0.717826 0.476574
vt 0.721137 0.487873
vt 0.858892 0.539907
vt 0.750565 0.460958
vt 0.688749 0.416256
vt 0.699588 0.453250
vt 0.703335 0.466038
vt 0.707483 0.480198
vt 0.711632 0.494358
vt 0.669335 0.438314
vt 0.677805 0.467221
vt 0.680733 0.477214
vt 0.683662 0.487210
vt 0.686591 0.497207
vt 0.656201 0.465295
vt 0.659698 0.477232
vt 0.660907 0.481358
vt 0.663260 0.489390
vt 0.665613 0.497421
vt 0.822701 0.206168
vt 0.774662 0.403320
vt 0.826133 0.308642
vt 0.866403 0.536033
vt 0.758648 0.458571
vt 0.648290 0.475975
vt 0.650700 0.484204
vt 0.651534 0.487048
vt 0.653156 0.492584
vt 0.654778 0.498120
vt 0.832029 0.248177
vt 0.821225 0.252882
vt 0.664965 0.462186
vt 0.649911 0.481512
vt 0.658554 0.473327
vt 0.817828 0.258227
vt 0.675034 0.457764
vt 0.696042 0.441147
vt 0.707336 0.419307
vt 0.807024 0.262931
vt 0.697093 0.423767
vt 0.685416 0.445690
s 1
usemtl Material.001
f 70/43/43 44/44/44 46/45/45 71/46/46
f 111/47/47 58/48/48 50/49/49 75/50/50
f 75/50/50 50/49/49 48/51/51 79/52/52
f 95/53/53 66/54/54 44/44/44 70/43/43
f 51/55/55 49/56/56 47/57/57 62/58/58
f 55/59/59 46/45/45 44/44/44 66/54/54
f 50/49/49 58/48/48 63/60/60 48/51/51
f 58/48/48 57/61/61 64/62/62 63/60/60
f 57/61/61 56/63/63 65/64/64 64/62/62
f 56/63/63 55/59/59 66/54/54 65/64/64
f 45/65/65 54/66/66 59/67/67 43/68/68
f 54/66/66 53/69/69 60/70/70 59/67/67
f 53/69/69 52/71/71 61/72/72 60/70/70
f 52/71/71 51/55/55 62/58/58 61/72/72
f 79/52/52 48/51/51 63/60/60 83/73/73
f 83/73/73 63/60/60 64/62/62 87/74/74
f 87/74/74 64/62/62 65/64/64 91/75/75
f 91/75/75 65/64/64 66/54/54 95/53/53
f 71/46/46 46/45/45 55/59/59 99/76/76
f 99/76/76 55/59/59 56/63/63 103/77/77
f 103/77/77 56/63/63 57/61/61 107/78/78
f 107/78/78 57/61/61 58/48/48 111/47/47
f 52/71/71 110/79/79 114/80/80 51/55/55
f 149/81/81 109/82/82 113/83/83 150/84/84
f 125/85/85 108/86/86 112/87/87 126/88/88
f 108/86/86 107/78/78 111/47/47 112/87/87
f 53/69/69 106/89/89 110/79/79 52/71/71
f 148/90/90 105/91/91 109/82/82 149/81/81
f 124/92/92 104/93/93 108/86/86 125/85/85
f 104/93/93 103/77/77 107/78/78 108/86/86
f 54/66/66 102/94/94 106/89/89 53/69/69
f 147/95/95 101/96/96 105/91/91 148/90/90
f 123/97/97 100/98/98 104/93/93 124/92/92
f 100/98/98 99/76/76 103/77/77 104/93/93
f 45/65/65 74/99/99 102/94/94 54/66/66
f 140/100/100 73/101/101 101/96/96 147/95/95
f 116/102/102 72/103/103 100/98/98 123/97/97
f 72/103/103 71/46/46 99/76/76 100/98/98
f 60/70/70 94/104/104 98/105/105 59/67/67
f 145/106/106 93/107/107 97/108/108 146/109/109
f 121/110/110 92/111/111 96/112/112 122/113/113
f 92/111/111 91/75/75 95/53/53 96/112/112
f 61/72/72 90/114/114 94/104/104 60/70/70
f 144/115/115 89/116/116 93/107/107 145/106/106
f 120/117/117 88/118/118 92/111/111 121/110/110
f 88/118/118 87/74/74 91/75/75 92/111/111
f 62/58/58 86/119/119 90/114/114 61/72/72
f 143/120/120 85/121/121 89/116/116 144/115/115
f 119/122/122 84/123/123 88/118/118 120/117/117
f 84/123/123 83/73/73 87/74/74 88/118/118
f 47/57/57 82/124/124 86/119/119 62/58/58
f 142/125/125 81/126/126 85/121/121 143/120/120
f 118/127/127 80/128/128 84/123/123 119/122/122
f 80/128/128 79/52/52 83/73/73 84/123/123
f 59/67/67 98/105/105 67/129/129 43/68/68
f 146/109/109 97/108/108 68/130/130 139/131/131
f 122/113/113 96/112/112 69/132/132 115/133/133
f 96/112/112 95/53/53 70/43/43 69/132/132
f 49/56/56 78/134/134 82/124/124 47/57/57
f 141/135/135 77/136/136 81/126/126 142/125/125
f 117/137/137 76/138/138 80/128/128 118/127/127
f 76/138/138 75/50/50 79/52/52 80/128/128
f 51/55/55 114/80/80 78/134/134 49/56/56
f 150/84/84 113/83/83 77/136/136 141/135/135
f 126/88/88 112/87/87 76/138/138 117/137/137
f 112/87/87 111/47/47 75/50/50 76/138/138
f 43/68/68 67/129/129 74/99/99 45/65/65
f 139/131/131 68/130/130 73/101/101 140/100/100
f 115/133/133 69/132/132 72/103/103 116/102/102
f 69/132/132 70/43/43 71/46/46 72/103/103
f 68/130/130 115/133/133 116/102/102 73/101/101
f 113/83/83 126/88/88 117/137/137 77/136/136
f 77/136/136 117/137/137 118/127/127 81/126/126
f 97/108/108 122/113/113 115/133/133 68/130/130
f 81/126/126 118/127/127 119/122/122 85/121/121
f 85/121/121 119/122/122 120/117/117 89/116/116
f 89/116/116 120/117/117 121/110/110 93/107/107
f 93/107/107 121/110/110 122/113/113 97/108/108
f 73/101/101 116/102/102 123/97/97 101/96/96
f 101/96/96 123/97/97 124/92/92 105/91/91
f 105/91/91 124/92/92 125/85/85 109/82/82
f 109/82/82 125/85/85 126/88/88 113/83/83
f 67/129/129 127/139/139 128/140/140 74/99/99
f 114/80/80 138/141/141 129/142/142 78/134/134
f 78/134/134 129/142/142 130/143/143 82/124/124
f 98/105/105 134/144/144 127/139/139 67/129/129
f 82/124/124 130/143/143 131/145/145 86/119/119
f 86/119/119 131/145/145 132/146/146 90/114/114
f 90/114/114 132/146/146 133/147/147 94/104/104
f 94/104/104 133/147/147 134/144/144 98/105/105
f 74/99/99 128/140/140 135/148/148 102/94/94
f 102/94/94 135/148/148 136/149/149 106/89/89
f 106/89/89 136/149/149 137/150/150 110/79/79
f 110/79/79 137/150/150 138/141/141 114/80/80
f 127/139/139 139/131/131 140/100/100 128/140/140
f 138/141/141 150/84/84 141/135/135 129/142/142
f 129/142/142 141/135/135 142/125/125 130/143/143
f 134/144/144 146/109/109 139/131/131 127/139/139
f 130/143/143 142/125/125 143/120/120 131/145/145
f 131/145/145 143/120/120 144/115/115 132/146/146
f 132/146/146 144/115/115 145/106/106 133/147/147
f 133/147/147 145/106/106 146/109/109 134/144/144
f 128/140/140 140/100/100 147/95/95 135/148/148
f 135/148/148 147/95/95 148/90/90 136/149/149
f 136/149/149 148/90/90 149/81/81 137/150/150
f 137/150/150 149/81/81 150/84/84 138/141/141
o Cube.020
v 0.348517 2.768227 -0.757912
v 0.465664 2.897109 -0.722299
v 0.349232 2.770178 -0.770394
v 0.467066 2.899078 -0.734675
v 0.468341 2.722609 -0.744152
v 0.672994 2.986291 -0.678024
v 0.469817 2.724579 -0.756678
v 0.674570 2.987690 -0.687078
v 0.372181 2.695459 -0.757199
v 0.352245 2.728147 -0.765887
v 0.350027 2.757072 -0.772445
v 0.556024 2.921661 -0.722892
v 0.585846 2.948664 -0.711317
v 0.639302 2.986541 -0.694085
v 0.349303 2.755121 -0.759938
v 0.351659 2.726196 -0.753174
v 0.371682 2.693509 -0.744514
v 0.637866 2.985141 -0.685113
v 0.584041 2.946694 -0.698800
v 0.554309 2.919691 -0.710437
v 0.357021 2.786910 -0.754720
v 0.406556 2.829932 -0.744824
v 0.427326 2.862139 -0.731611
v 0.428648 2.864109 -0.743986
v 0.407943 2.831902 -0.757210
v 0.357731 2.788861 -0.767165
v 0.638418 2.871512 -0.712396
v 0.595523 2.789882 -0.728705
v 0.539815 2.747496 -0.743124
v 0.636445 2.869542 -0.699800
v 0.593769 2.787912 -0.716125
v 0.538208 2.745526 -0.730578
v 0.584379 2.867924 -0.712146
v 0.538273 2.816761 -0.726993
v 0.480966 2.774376 -0.740385
v 0.566141 2.867347 -0.715692
v 0.517962 2.815403 -0.733894
v 0.455346 2.772173 -0.746668
v 0.514085 2.865729 -0.724899
v 0.464362 2.813785 -0.741730
v 0.420448 2.771126 -0.752586
v 0.515672 2.867699 -0.737301
v 0.465876 2.815754 -0.754120
v 0.421239 2.773077 -0.765022
v 0.567880 2.869318 -0.728164
v 0.519595 2.817373 -0.746321
v 0.456180 2.774123 -0.759116
v 0.586175 2.869894 -0.724648
v 0.539921 2.818731 -0.739449
v 0.482482 2.776345 -0.752831
vn -0.6318 0.3032 0.7134
vn -0.4259 0.5415 0.7248
vn -0.3070 0.7671 -0.5633
vn -0.5022 0.6222 -0.6006
vn 0.2156 0.1178 -0.9693
vn -0.1303 0.8185 -0.5596
vn 0.7443 0.5687 -0.3502
vn 0.7820 -0.1911 -0.5932
vn 0.5393 0.4139 0.7334
vn 0.5370 -0.3756 0.7553
vn -0.1225 -0.1934 0.9734
vn -0.4458 0.4551 0.7708
vn -0.2231 -0.7735 -0.5933
vn 0.2542 -0.6035 -0.7558
vn 0.1926 -0.7750 0.6019
vn -0.3602 -0.7265 0.5853
vn -0.1701 0.6764 -0.7166
vn -0.3780 0.6233 0.6846
vn -0.3289 0.6775 -0.6578
vn -0.5570 0.4375 0.7059
vn -0.7013 0.2393 -0.6715
vn -0.5984 -0.0897 -0.7961
vn -0.8129 -0.0172 0.5822
vn -0.7787 0.0437 0.6259
vn -0.6189 -0.3516 -0.7024
vn -0.8077 -0.1381 0.5732
vn -0.2019 -0.1126 0.9729
vn -0.2037 -0.1267 0.9708
vn 0.1214 0.1937 -0.9735
vn 0.2120 0.1265 -0.9690
vn 0.1730 -0.0812 -0.9816
vn 0.1880 -0.0330 -0.9816
vn 0.2173 0.0453 -0.9750
vn 0.2347 0.0510 -0.9707
vn 0.1257 -0.0332 -0.9915
vn 0.1187 0.1682 -0.9786
vn -0.5549 0.5453 -0.6283
vn -0.4193 0.5647 -0.7109
vn -0.1739 0.0826 0.9813
vn -0.1262 0.0361 0.9913
vn -0.2200 -0.0436 0.9745
vn -0.1192 -0.1684 0.9785
vn -0.1904 0.0357 0.9811
vn -0.2368 -0.0500 0.9703
vn 0.2561 -0.7228 0.6418
vn 0.4512 -0.5599 0.6950
vn -0.6480 0.3471 0.6780
vn -0.5977 0.3157 0.7369
vn 0.4408 -0.5840 -0.6816
vn 0.6798 -0.4182 -0.6025
vt 0.414357 0.381797
vt 0.402756 0.398330
vt 0.401268 0.399406
vt 0.412869 0.382873
vt 0.353048 0.395666
vt 0.324708 0.480588
vt 0.315472 0.485185
vt 0.333062 0.399809
vt 0.316528 0.484420
vt 0.334550 0.398733
vt 0.381637 0.388971
vt 0.361491 0.414491
vt 0.424531 0.310833
vt 0.388704 0.329145
vt 0.390191 0.328069
vt 0.425770 0.309808
vt 0.360003 0.415567
vt 0.325765 0.479823
vt 0.350440 0.428439
vt 0.351927 0.427362
vt 0.435152 0.340007
vt 0.434084 0.334752
vt 0.435323 0.333727
vt 0.436391 0.338982
vt 0.432547 0.323011
vt 0.433787 0.321986
vt 0.354535 0.394590
vt 0.361652 0.393114
vt 0.380149 0.390047
vt 0.360164 0.394191
vt 0.396079 0.348432
vt 0.386706 0.350983
vt 0.375057 0.370039
vt 0.367677 0.371885
vt 0.408639 0.345816
vt 0.395042 0.365896
vt 0.433234 0.348097
vt 0.417496 0.368699
vt 0.397319 0.347407
vt 0.409878 0.344791
vt 0.376544 0.368963
vt 0.396530 0.364819
vt 0.388193 0.349907
vt 0.369165 0.370809
vt 0.365386 0.341892
vt 0.346357 0.362793
vt 0.434473 0.347072
vt 0.418983 0.367623
vt 0.363898 0.342968
vt 0.344869 0.363870
s 1
usemtl Material.001
f 173/151/151 152/152/152 154/153/153 174/154/154
f 198/155/155 164/156/156 158/157/157 177/158/158
f 177/158/158 158/157/157 156/159/159 180/160/160
f 189/161/161 170/162/162 152/152/152 173/151/151
f 159/163/163 157/164/164 155/165/165 167/166/166
f 162/167/167 154/153/153 152/152/152 170/162/162
f 158/157/157 164/156/156 168/168/168 156/159/159
f 164/156/156 163/169/169 169/170/170 168/168/168
f 163/169/169 162/167/167 170/162/162 169/170/170
f 153/171/171 161/172/172 165/173/173 151/174/174
f 161/172/172 160/175/175 166/176/176 165/173/173
f 160/175/175 159/163/163 167/166/166 166/176/176
f 180/160/160 156/159/159 168/168/168 183/177/177
f 183/177/177 168/168/168 169/170/170 186/178/178
f 186/178/178 169/170/170 170/162/162 189/161/161
f 174/154/154 154/153/153 162/167/167 192/179/179
f 192/179/179 162/167/167 163/169/169 195/180/180
f 195/180/180 163/169/169 164/156/156 198/155/155
f 160/175/175 197/181/181 200/182/182 159/163/163
f 197/181/181 196/183/183 199/184/184 200/182/182
f 196/183/183 195/180/180 198/155/155 199/184/184
f 161/172/172 194/185/185 197/181/181 160/175/175
f 194/185/185 193/186/186 196/183/183 197/181/181
f 193/186/186 192/179/179 195/180/180 196/183/183
f 153/171/171 176/187/187 194/185/185 161/172/172
f 176/187/187 175/188/188 193/186/186 194/185/185
f 175/188/188 174/154/154 192/179/179 193/186/186
f 166/176/176 188/189/189 191/190/190 165/173/173
f 188/189/189 187/191/191 190/192/192 191/190/190
f 187/191/191 186/178/178 189/161/161 190/192/192
f 167/166/166 185/193/193 188/189/189 166/176/176
f 185/193/193 184/194/194 187/191/191 188/189/189
f 184/194/194 183/177/177 186/178/178 187/191/191
f 155/165/165 182/195/195 185/193/193 167/166/166
f 182/195/195 181/196/196 184/194/194 185/193/193
f 181/196/196 180/160/160 183/177/177 184/194/194
f 165/173/173 191/190/190 171/197/197 151/174/174
f 191/190/190 190/192/192 172/198/198 171/197/197
f 190/192/192 189/161/161 173/151/151 172/198/198
f 157/164/164 179/199/199 182/195/195 155/165/165
f 179/199/199 178/200/200 181/196/196 182/195/195
f 178/200/200 177/158/158 180/160/160 181/196/196
f 159/163/163 200/182/182 179/199/199 157/164/164
f 200/182/182 199/184/184 178/200/200 179/199/199
f 199/184/184 198/155/155 177/158/158 178/200/200
f 151/174/174 171/197/197 176/187/187 153/171/171
f 171/197/197 172/198/198 175/188/188 176/187/187
f 172/198/198 173/151/151 174/154/154 175/188/188
o Cube.021
v 0.143477 2.939323 -0.667785
v 0.181649 3.023064 -0.654748
v 0.142410 2.940221 -0.673519
v 0.180889 3.023971 -0.660423
v 0.192991 2.903169 -0.659379
v 0.294905 3.042030 -0.643344
v 0.192354 2.904076 -0.665001
v 0.294628 3.042674 -0.647351
v 0.155354 2.886443 -0.671335
v 0.138004 2.892767 -0.674109
v 0.133613 2.902973 -0.675816
v 0.242022 3.033522 -0.657069
v 0.256779 3.045956 -0.654798
v 0.277273 3.042145 -0.649210
v 0.134730 2.902074 -0.669822
v 0.139142 2.891869 -0.668124
v 0.156459 2.885544 -0.665353
v 0.277589 3.041500 -0.645203
v 0.257270 3.045048 -0.649152
v 0.242543 3.032615 -0.651411
v 0.148075 2.947926 -0.665979
v 0.159683 2.977373 -0.659745
v 0.167061 2.999714 -0.655678
v 0.166306 3.000621 -0.661324
v 0.158947 2.978280 -0.665415
v 0.147015 2.948824 -0.671708
v 0.275731 2.989181 -0.650598
v 0.253764 2.951595 -0.653818
v 0.225762 2.932078 -0.658882
v 0.276104 2.988274 -0.644964
v 0.254223 2.950687 -0.648152
v 0.226307 2.931171 -0.653223
v 0.251547 2.987529 -0.647348
v 0.228498 2.963971 -0.651187
v 0.200348 2.944455 -0.656529
v 0.242790 2.987263 -0.648276
v 0.218567 2.963346 -0.653888
v 0.188234 2.943440 -0.659403
v 0.218184 2.986518 -0.651079
v 0.193748 2.962600 -0.657021
v 0.172155 2.942959 -0.662465
v 0.217624 2.987425 -0.656709
v 0.193110 2.963508 -0.662700
v 0.171166 2.943857 -0.668166
v 0.242312 2.988170 -0.653903
v 0.218013 2.964253 -0.659558
v 0.187288 2.944339 -0.665090
v 0.251097 2.988436 -0.652975
v 0.227963 2.964878 -0.656853
v 0.199725 2.945362 -0.662199
vn -0.6420 0.2231 0.7335
vn -0.4171 0.6043 0.6788
vn -0.4464 0.6890 -0.5710
vn -0.6893 0.3875 -0.6121
vn 0.1529 -0.0003 -0.9882
vn 0.1583 0.7475 -0.6451
vn 0.6573 0.5706 -0.4922
vn 0.6661 -0.2540 -0.7013
vn 0.6782 0.4171 0.6051
vn 0.6531 -0.3411 0.6761
vn -0.1099 -0.0470 0.9928
vn -0.3330 0.5310 0.7792
vn 0.0934 -0.7294 -0.6777
vn 0.4520 -0.5165 -0.7273
vn 0.3578 -0.7021 0.6157
vn -0.0003 -0.8270 0.5622
vn -0.1891 0.6234 -0.7587
vn -0.0646 0.6264 0.7768
vn -0.1598 0.7810 -0.6037
vn -0.2491 0.7161 0.6521
vn -0.6781 0.3174 -0.6629
vn -0.7399 -0.0509 -0.6708
vn -0.7808 -0.0756 0.6202
vn -0.6957 0.1909 0.6925
vn -0.5093 -0.5646 -0.6495
vn -0.5706 -0.5761 0.5852
vn -0.1364 0.0045 0.9906
vn -0.1635 0.0128 0.9865
vn 0.1099 0.0475 -0.9928
vn 0.1740 -0.0133 -0.9847
vn 0.1792 0.0220 -0.9836
vn 0.1959 -0.0239 -0.9803
vn 0.1833 0.0104 -0.9830
vn 0.1660 0.0168 -0.9860
vn 0.1791 0.0512 -0.9825
vn 0.1372 0.1086 -0.9846
vn -0.6216 0.3897 -0.6795
vn -0.6546 0.3590 -0.6653
vn -0.1794 -0.0203 0.9836
vn -0.1783 -0.0494 0.9827
vn -0.1845 -0.0091 0.9828
vn -0.1372 -0.1089 0.9845
vn -0.1960 0.0248 0.9803
vn -0.1665 -0.0160 0.9859
vn 0.3729 -0.6516 0.6606
vn 0.5237 -0.5741 0.6294
vn -0.6469 0.1770 0.7418
vn -0.6661 0.1053 0.7384
vn 0.4835 -0.4450 -0.7538
vn 0.5810 -0.4324 -0.6896
vt 0.633443 0.416501
vt 0.625138 0.430934
vt 0.623990 0.431495
vt 0.632295 0.417061
vt 0.582714 0.409529
vt 0.536143 0.489257
vt 0.526059 0.489585
vt 0.568519 0.409990
vt 0.526875 0.489186
vt 0.569667 0.409429
vt 0.603112 0.408344
vt 0.556531 0.483366
vt 0.636297 0.346482
vt 0.615115 0.357382
vt 0.616263 0.356821
vt 0.637268 0.345926
vt 0.555382 0.483927
vt 0.536959 0.488859
vt 0.547293 0.491613
vt 0.548441 0.491052
vt 0.642781 0.379725
vt 0.648072 0.356700
vt 0.649044 0.356145
vt 0.643753 0.379170
vt 0.646017 0.350391
vt 0.646988 0.349836
vt 0.583862 0.408968
vt 0.588917 0.408804
vt 0.601964 0.408904
vt 0.587769 0.409365
vt 0.617842 0.382270
vt 0.611111 0.382903
vt 0.600855 0.394580
vt 0.595576 0.394967
vt 0.626764 0.381973
vt 0.615051 0.394120
vt 0.640503 0.385043
vt 0.635368 0.403251
vt 0.618813 0.381715
vt 0.627736 0.381417
vt 0.602004 0.394020
vt 0.616199 0.393559
vt 0.612259 0.382342
vt 0.596724 0.394406
vt 0.597577 0.374131
vt 0.582042 0.386195
vt 0.641474 0.384488
vt 0.636516 0.402691
vt 0.596429 0.374692
vt 0.580894 0.386756
s 1
usemtl Material.001
f 223/201/201 202/202/202 204/203/203 224/204/204
f 248/205/205 214/206/206 208/207/207 227/208/208
f 227/208/208 208/207/207 206/209/209 230/210/210
f 239/211/211 220/212/212 202/202/202 223/201/201
f 209/213/213 207/214/214 205/215/215 217/216/216
f 212/217/217 204/203/203 202/202/202 220/212/212
f 208/207/207 214/206/206 218/218/218 206/209/209
f 214/206/206 213/219/219 219/220/220 218/218/218
f 213/219/219 212/217/217 220/212/212 219/220/220
f 203/221/221 211/222/222 215/223/223 201/224/224
f 211/222/222 210/225/225 216/226/226 215/223/223
f 210/225/225 209/213/213 217/216/216 216/226/226
f 230/210/210 206/209/209 218/218/218 233/227/227
f 233/227/227 218/218/218 219/220/220 236/228/228
f 236/228/228 219/220/220 220/212/212 239/211/211
f 224/204/204 204/203/203 212/217/217 242/229/229
f 242/229/229 212/217/217 213/219/219 245/230/230
f 245/230/230 213/219/219 214/206/206 248/205/205
f 210/225/225 247/231/231 250/232/232 209/213/213
f 247/231/231 246/233/233 249/234/234 250/232/232
f 246/233/233 245/230/230 248/205/205 249/234/234
f 211/222/222 244/235/235 247/231/231 210/225/225
f 244/235/235 243/236/236 246/233/233 247/231/231
f 243/236/236 242/229/229 245/230/230 246/233/233
f 203/221/221 226/237/237 244/235/235 211/222/222
f 226/237/237 225/238/238 243/236/236 244/235/235
f 225/238/238 224/204/204 242/229/229 243/236/236
f 216/226/226 238/239/239 241/240/240 215/223/223
f 238/239/239 237/241/241 240/242/242 241/240/240
f 237/241/241 236/228/228 239/211/211 240/242/242
f 217/216/216 235/243/243 238/239/239 216/226/226
f 235/243/243 234/244/244 237/241/241 238/239/239
f 234/244/244 233/227/227 236/228/228 237/241/241
f 205/215/215 232/245/245 235/243/243 217/216/216
f 232/245/245 231/246/246 234/244/244 235/243/243
f 231/246/246 230/210/210 233/227/227 234/244/244
f 215/223/223 241/240/240 221/247/247 201/224/224
f 241/240/240 240/242/242 222/248/248 221/247/247
f 240/242/242 239/211/211 223/201/201 222/248/248
f 207/214/214 229/249/249 232/245/245 205/215/215
f 229/249/249 228/250/250 231/246/246 232/245/245
f 228/250/250 227/208/208 230/210/210 231/246/246
f 209/213/213 250/232/232 229/249/249 207/214/214
f 250/232/232 249/234/234 228/250/250 229/249/249
f 249/234/234 248/205/205 227/208/208 228/250/250
f 201/224/224 221/247/247 226/237/237 203/221/221
f 221/247/247 222/248/248 225/238/238 226/237/237
f 222/248/248 223/201/201 224/204/204 225/238/238
o Cube.022
v 0.430905 3.275214 -0.591029
v 0.472241 3.526643 -0.585244
v 0.428795 3.275103 -0.605426
v 0.470438 3.526531 -0.599836
v 0.588467 3.280366 -0.580765
v 0.611681 3.430599 -0.577122
v 0.587445 3.280255 -0.595527
v 0.610685 3.430488 -0.591932
v 0.509252 3.306868 -0.602826
v 0.517063 3.516809 -0.597749
v 0.510763 3.306979 -0.588259
v 0.518567 3.516920 -0.583079
v 0.468669 3.457757 -0.589275
v 0.466801 3.457646 -0.603796
v 0.606418 3.270152 -0.593652
v 0.607331 3.270263 -0.578956
v 0.514628 3.448035 -0.586849
v 0.513082 3.447924 -0.601462
v 0.667521 3.346682 -0.568755
v 0.666700 3.346571 -0.583764
v 0.644147 3.270065 -0.588262
v 0.644942 3.270176 -0.573452
v 0.678330 3.305683 -0.568047
v 0.677477 3.305572 -0.583409
v 0.669917 3.259958 -0.584708
v 0.670704 3.260069 -0.569778
v 0.341983 3.250115 -0.587193
v 0.376584 3.439243 -0.591701
v 0.339164 3.250004 -0.601210
v 0.373952 3.439132 -0.606035
v 0.375820 3.333652 -0.594260
v 0.373174 3.333541 -0.608561
v 0.283918 3.236098 -0.578889
v 0.282030 3.359420 -0.581087
v 0.280327 3.235986 -0.593046
v 0.278209 3.359308 -0.595327
v 0.284440 3.253829 -0.577656
v 0.280870 3.253718 -0.591827
v 0.244542 3.216237 -0.576288
v 0.223582 3.244314 -0.572150
v 0.240409 3.216126 -0.590378
v 0.219177 3.244203 -0.586210
v 0.220860 3.229258 -0.573283
v 0.216402 3.229147 -0.587337
v 0.469141 3.293477 -0.604859
v 0.496171 3.533546 -0.583486
v 0.494536 3.533435 -0.598130
v 0.470940 3.293588 -0.590379
v 0.490010 3.452785 -0.602813
v 0.491712 3.452896 -0.588248
v 0.421800 3.462688 -0.604694
v 0.424013 3.462799 -0.590262
v 0.386763 3.267648 -0.588649
v 0.384277 3.267537 -0.602945
v 0.422493 3.379409 -0.592027
v 0.420274 3.379298 -0.606418
v 0.568790 3.479319 -0.593556
v 0.549967 3.296164 -0.584893
v 0.548722 3.296053 -0.599550
v 0.570017 3.479430 -0.578791
v 0.556920 3.389639 -0.583970
v 0.555660 3.389528 -0.598642
vn 0.2063 -0.6633 -0.7194
vn 0.1507 -0.6526 0.7426
vn 0.2963 -0.6995 0.6503
vn 0.1325 -0.6830 -0.7183
vn 0.0969 0.0158 -0.9952
vn 0.5322 0.5259 -0.6635
vn 0.6027 0.4108 -0.6841
vn -0.1207 -0.7385 -0.6633
vn 0.5446 0.4597 0.7015
vn 0.6319 0.3194 0.7062
vn 0.7142 0.2902 -0.6369
vn -0.0503 -0.0307 0.9983
vn 0.1404 0.7598 0.6348
vn -0.4359 0.6013 0.6697
vn -0.0336 -0.0323 0.9989
vn -0.1594 -0.6758 -0.7196
vn -0.2441 -0.6785 -0.6929
vn -0.3672 -0.6207 0.6928
vn -0.2881 -0.6356 0.7162
vn 0.1370 0.7868 -0.6018
vn -0.4358 0.6617 -0.6101
vn 0.4394 0.5563 -0.7054
vn 0.3949 0.5832 0.7099
vn 0.4569 0.5502 0.6989
vn 0.2749 -0.6209 -0.7341
vn 0.0880 -0.6178 -0.7814
vn -0.0556 -0.6318 0.7731
vn 0.2341 -0.6712 0.7034
vn -0.0993 -0.0161 0.9949
vn -0.0854 -0.0315 0.9958
vn 0.0479 0.0302 -0.9984
vn 0.0827 0.0310 -0.9961
vn 0.2185 -0.7186 0.6602
vn -0.2475 -0.7274 0.6400
vn -0.4259 0.4415 0.7898
vn -0.3985 0.5515 -0.7328
vn -0.4291 0.6306 -0.6467
vn -0.3667 0.5966 0.7139
vn -0.2441 -0.6336 0.7342
vn -0.0063 -0.6616 -0.7498
vn 0.4092 -0.7294 -0.5482
vn 0.3990 -0.7066 0.5845
vn 0.7703 0.0405 -0.6364
vn 0.7178 0.0276 0.6957
vn -0.6885 0.4739 -0.5490
vn -0.4579 0.4600 0.7608
vn 0.0348 0.0317 0.9989
vn 0.1243 -0.0053 0.9922
vn 0.3092 -0.6615 0.6833
vn -0.0210 -0.0018 0.9998
vn 0.0186 0.0014 -0.9998
vn -0.0361 -0.0325 -0.9988
vn -0.5552 0.2245 0.8008
vn -0.6027 -0.3501 0.7171
vn -0.1228 0.0034 -0.9924
vn 0.1481 -0.6126 -0.7764
vn -0.1175 -0.7736 -0.6227
vn -0.8077 -0.3662 -0.4622
vn -0.8274 0.2330 -0.5110
vn 0.0878 -0.8047 0.5871
vn 0.2123 -0.6859 -0.6961
vn 0.0313 0.0317 -0.9990
vt 0.546295 0.635678
vt 0.547135 0.635308
vt 0.559006 0.622657
vt 0.558166 0.623026
vt 0.510807 0.700579
vt 0.523041 0.729521
vt 0.500402 0.721629
vt 0.473054 0.672650
vt 0.501242 0.721260
vt 0.467837 0.704997
vt 0.466997 0.705366
vt 0.543957 0.708970
vt 0.557101 0.733907
vt 0.563371 0.728142
vt 0.552144 0.706842
vt 0.496915 0.671017
vt 0.481240 0.672563
vt 0.482080 0.672194
vt 0.497755 0.670648
vt 0.556261 0.734276
vt 0.562531 0.728512
vt 0.546156 0.732766
vt 0.546996 0.732396
vt 0.523881 0.729152
vt 0.522695 0.657359
vt 0.511777 0.667930
vt 0.512617 0.667561
vt 0.523535 0.656990
vt 0.511647 0.700210
vt 0.535770 0.711097
vt 0.543117 0.709339
vt 0.534929 0.711466
vt 0.533640 0.644878
vt 0.473894 0.672280
vt 0.567134 0.701446
vt 0.566294 0.701815
vt 0.577579 0.687107
vt 0.578420 0.686738
vt 0.461236 0.678461
vt 0.460396 0.678830
vt 0.449911 0.680043
vt 0.450751 0.679673
vt 0.455515 0.695045
vt 0.456355 0.694676
vt 0.594985 0.647495
vt 0.595825 0.647125
vt 0.561210 0.654088
vt 0.578615 0.614476
vt 0.575949 0.608884
vt 0.553381 0.675741
vt 0.552541 0.676111
vt 0.560370 0.654458
vt 0.597269 0.601616
vt 0.595748 0.596503
vt 0.577775 0.614846
vt 0.575109 0.609253
vt 0.584992 0.596672
vt 0.594907 0.596872
vt 0.596429 0.601985
vt 0.585832 0.596302
vt 0.532800 0.645247
vt 0.551304 0.707212
s 1
usemtl Material.001
f 304/251/251 303/252/252 277/253/253 279/254/254
f 312/255/255 307/256/256 258/257/257 265/258/258
f 258/257/257 256/259/259 269/260/260 270/261/261
f 300/262/262 296/263/263 252/264/264 263/265/265
f 309/266/266 257/267/267 255/268/268 308/269/269
f 297/270/270 254/271/271 252/264/264 296/263/263
f 307/256/256 260/272/272 262/273/273 310/274/274
f 295/275/275 259/276/276 261/277/277 298/278/278
f 311/279/279 310/274/274 262/273/273 267/280/280
f 299/281/281 297/270/270 260/272/272 268/282/282
f 295/275/275 299/281/281 268/282/282 259/276/276
f 308/269/269 311/279/279 267/280/280 261/277/277
f 298/278/278 300/262/262 263/265/265 251/283/283
f 257/267/267 265/258/258 266/284/284 255/268/268
f 309/266/266 312/255/255 265/258/258 257/267/267
f 302/285/285 301/286/286 280/287/287 278/288/288
f 272/289/289 271/290/290 275/291/291 276/292/292
f 265/258/258 258/257/257 270/261/261 271/290/290
f 266/284/284 265/258/258 271/290/290 272/289/289
f 256/259/259 266/284/284 272/289/289 269/260/260
f 275/291/291 274/293/293 273/294/294 276/292/292
f 271/290/290 270/261/261 274/293/293 275/291/291
f 269/260/260 272/289/289 276/292/292 273/294/294
f 270/261/261 269/260/260 273/294/294 274/293/293
f 278/288/288 280/287/287 286/295/295 284/296/296
f 277/253/253 281/297/297 287/298/298 283/299/299
f 303/252/252 305/300/300 281/297/297 277/253/253
f 306/301/301 304/251/251 279/254/254 282/302/302
f 305/300/300 302/285/285 278/288/288 281/297/297
f 301/286/286 306/301/301 282/302/302 280/287/287
f 287/298/298 284/296/296 290/303/303 293/304/304
f 288/305/305 285/306/306 291/307/307 294/308/308
f 279/254/254 277/253/253 283/299/299 285/306/306
f 280/287/287 282/302/302 288/305/305 286/295/295
f 282/302/302 279/254/254 285/306/306 288/305/305
f 281/297/297 278/288/288 284/296/296 287/298/298
f 293/304/304 290/303/303 292/309/309 294/308/308
f 289/310/310 293/304/304 294/308/308 291/307/307
f 283/299/299 287/298/298 293/304/304 289/310/310
f 284/296/296 286/295/295 292/309/309 290/303/303
f 285/306/306 283/299/299 289/310/310 291/307/307
f 286/295/295 288/305/305 294/308/308 292/309/309
f 261/277/277 267/280/280 300/262/262 298/278/278
f 253/311/311 264/312/312 299/281/281 295/275/275
f 264/312/312 254/271/271 297/270/270 299/281/281
f 253/311/311 295/275/275 298/278/278 251/283/283
f 260/272/272 297/270/270 296/263/263 262/273/273
f 267/280/280 262/273/273 296/263/263 300/262/262
f 254/271/271 264/312/312 306/301/301 301/286/286
f 263/265/265 252/264/264 302/285/285 305/300/300
f 264/312/312 253/311/311 304/251/251 306/301/301
f 251/283/283 263/265/265 305/300/300 303/252/252
f 252/264/264 254/271/271 301/286/286 302/285/285
f 253/311/311 251/283/283 303/252/252 304/251/251
f 259/276/276 268/282/282 312/255/255 309/266/266
f 255/268/268 266/284/284 311/279/279 308/269/269
f 266/284/284 256/259/259 310/274/274 311/279/279
f 258/257/257 307/256/256 310/274/274 256/259/259
f 259/276/276 309/266/266 308/269/269 261/277/277
f 268/282/282 260/272/272 307/256/256 312/255/255
o Cube.023
v 0.485157 2.768227 -0.325055
v 0.550647 2.897109 -0.406307
v 0.491697 2.770178 -0.310930
v 0.557497 2.899078 -0.392559
v 0.566418 2.722609 -0.372458
v 0.705890 2.986291 -0.483084
v 0.573194 2.724579 -0.358640
v 0.710238 2.987690 -0.473571
v 0.501121 2.695459 -0.322750
v 0.490891 2.728147 -0.313413
v 0.492865 2.757072 -0.308376
v 0.622119 2.921661 -0.421701
v 0.641896 2.948664 -0.438573
v 0.681892 2.986541 -0.460767
v 0.486348 2.755121 -0.322496
v 0.484354 2.726196 -0.327448
v 0.494607 2.693509 -0.336701
v 0.677709 2.985141 -0.470181
v 0.635659 2.946694 -0.451975
v 0.615703 2.919691 -0.435169
v 0.489537 2.786910 -0.333150
v 0.518993 2.829932 -0.366092
v 0.526935 2.862139 -0.387308
v 0.533925 2.864109 -0.373519
v 0.525981 2.831902 -0.352210
v 0.496084 2.788861 -0.319044
v 0.688953 2.871512 -0.441075
v 0.660635 2.789882 -0.417769
v 0.621882 2.747496 -0.389829
v 0.682953 2.869542 -0.454581
v 0.654303 2.787912 -0.431420
v 0.615310 2.745526 -0.403583
v 0.642405 2.867924 -0.438444
v 0.611730 2.816761 -0.413833
v 0.573367 2.774376 -0.385517
v 0.628599 2.867347 -0.432039
v 0.598431 2.815403 -0.402707
v 0.556743 2.772173 -0.372620
v 0.590205 2.865729 -0.413586
v 0.560393 2.813785 -0.383400
v 0.533687 2.771126 -0.357105
v 0.596839 2.867699 -0.399819
v 0.567204 2.815754 -0.369528
v 0.540098 2.773077 -0.343025
v 0.634984 2.869318 -0.418357
v 0.605058 2.817373 -0.388894
v 0.563074 2.774123 -0.358573
v 0.648696 2.869894 -0.424800
v 0.618280 2.818731 -0.400073
v 0.580123 2.776345 -0.371672
vn -0.8851 0.1883 -0.4256
vn -0.3276 0.5674 0.7555
vn -0.1869 0.7364 0.6502
vn -0.6865 0.5039 -0.5242
vn 0.4071 0.1617 0.8990
vn 0.9135 -0.1233 0.3877
vn 0.7854 0.5938 0.1750
vn -0.0459 0.8026 0.5947
vn 0.3625 -0.3329 -0.8705
vn 0.3438 0.4281 -0.8358
vn -0.3967 -0.2438 -0.8850
vn -0.6861 0.4212 -0.5932
vn -0.0085 -0.7292 0.6843
vn -0.5617 -0.7589 -0.3296
vn -0.0145 -0.7737 -0.6334
vn 0.5760 -0.5482 0.6064
vn 0.0100 0.6483 0.7613
vn -0.5351 0.6327 -0.5597
vn -0.7358 0.3964 -0.5491
vn -0.2322 0.6306 0.7406
vn -0.3279 0.2901 0.8990
vn -0.9718 -0.0004 -0.2358
vn -0.9812 -0.0132 -0.1924
vn -0.2043 0.0078 0.9789
vn -0.9725 -0.0942 -0.2128
vn -0.3004 -0.2099 0.9304
vn -0.3847 -0.1529 -0.9103
vn -0.4422 -0.1683 -0.8810
vn 0.3995 0.2457 0.8832
vn 0.4586 0.1705 0.8721
vn 0.5366 0.0501 0.8423
vn 0.5518 0.0190 0.8338
vn 0.5011 0.1172 0.8574
vn 0.5350 0.1067 0.8381
vn 0.5548 0.0610 0.8298
vn 0.4536 0.2530 0.8545
vn -0.2542 0.5414 0.8014
vn -0.1530 0.5795 0.8005
vn -0.5529 -0.0629 -0.8308
vn -0.5507 -0.0197 -0.8345
vn -0.4512 -0.2539 -0.8555
vn -0.5333 -0.1055 -0.8393
vn -0.5359 -0.0489 -0.8428
vn -0.4975 -0.1165 -0.8596
vn 0.0916 -0.7197 -0.6882
vn 0.2799 -0.5253 -0.8036
vn -0.9155 0.2449 -0.3191
vn -0.8949 0.1664 -0.4141
vn 0.6974 -0.5235 0.4894
vn 0.8651 -0.3385 0.3701
vt 0.444746 0.367936
vt 0.442811 0.369072
vt 0.426769 0.387836
vt 0.428704 0.386700
vt 0.368533 0.377666
vt 0.343733 0.380378
vt 0.314391 0.488268
vt 0.332008 0.486341
vt 0.345668 0.379242
vt 0.315766 0.487461
vt 0.404099 0.372852
vt 0.387135 0.401209
vt 0.465396 0.282776
vt 0.467023 0.281674
vt 0.421605 0.299746
vt 0.419669 0.300882
vt 0.385200 0.402345
vt 0.333383 0.485534
vt 0.373999 0.415756
vt 0.372064 0.416892
vt 0.474919 0.319512
vt 0.476546 0.318409
vt 0.475859 0.311890
vt 0.474231 0.312993
vt 0.475358 0.297425
vt 0.473730 0.298528
vt 0.370468 0.376529
vt 0.379299 0.375564
vt 0.402164 0.373988
vt 0.377364 0.376700
vt 0.414693 0.327220
vt 0.426396 0.325209
vt 0.389104 0.350435
vt 0.398299 0.349049
vt 0.441982 0.323490
vt 0.423099 0.346337
vt 0.471643 0.329131
vt 0.450092 0.352364
vt 0.443610 0.322387
vt 0.428023 0.324107
vt 0.425034 0.345201
vt 0.400234 0.347913
vt 0.416629 0.326084
vt 0.391040 0.349299
vt 0.389812 0.313674
vt 0.364223 0.336888
vt 0.473270 0.328028
vt 0.452028 0.351228
vt 0.387876 0.314810
vt 0.362287 0.338025
s 1
usemtl Material.001
f 335/313/313 336/314/314 316/315/315 314/316/316
f 360/317/317 339/318/318 320/319/319 326/320/320
f 339/318/318 342/321/321 318/322/322 320/319/319
f 351/323/323 335/313/313 314/316/316 332/324/324
f 321/325/325 329/326/326 317/327/327 319/328/328
f 324/329/329 332/324/324 314/316/316 316/315/315
f 320/319/319 318/322/322 330/330/330 326/320/320
f 326/320/320 330/330/330 331/331/331 325/332/332
f 325/332/332 331/331/331 332/324/324 324/329/329
f 315/333/333 313/334/334 327/335/335 323/336/336
f 323/336/336 327/335/335 328/337/337 322/338/338
f 322/338/338 328/337/337 329/326/326 321/325/325
f 342/321/321 345/339/339 330/330/330 318/322/322
f 345/339/339 348/340/340 331/331/331 330/330/330
f 348/340/340 351/323/323 332/324/324 331/331/331
f 336/314/314 354/341/341 324/329/329 316/315/315
f 354/341/341 357/342/342 325/332/332 324/329/329
f 357/342/342 360/317/317 326/320/320 325/332/332
f 322/338/338 321/325/325 362/343/343 359/344/344
f 359/344/344 362/343/343 361/345/345 358/346/346
f 358/346/346 361/345/345 360/317/317 357/342/342
f 323/336/336 322/338/338 359/344/344 356/347/347
f 356/347/347 359/344/344 358/346/346 355/348/348
f 355/348/348 358/346/346 357/342/342 354/341/341
f 315/333/333 323/336/336 356/347/347 338/349/349
f 338/349/349 356/347/347 355/348/348 337/350/350
f 337/350/350 355/348/348 354/341/341 336/314/314
f 328/337/337 327/335/335 353/351/351 350/352/352
f 350/352/352 353/351/351 352/353/353 349/354/354
f 349/354/354 352/353/353 351/323/323 348/340/340
f 329/326/326 328/337/337 350/352/352 347/355/355
f 347/355/355 350/352/352 349/354/354 346/356/356
f 346/356/356 349/354/354 348/340/340 345/339/339
f 317/327/327 329/326/326 347/355/355 344/357/357
f 344/357/357 347/355/355 346/356/356 343/358/358
f 343/358/358 346/356/356 345/339/339 342/321/321
f 327/335/335 313/334/334 333/359/359 353/351/351
f 353/351/351 333/359/359 334/360/360 352/353/353
f 352/353/353 334/360/360 335/313/313 351/323/323
f 319/328/328 317/327/327 344/357/357 341/361/361
f 341/361/361 344/357/357 343/358/358 340/362/362
f 340/362/362 343/358/358 342/321/321 339/318/318
f 321/325/325 319/328/328 341/361/361 362/343/343
f 362/343/343 341/361/361 340/362/362 361/345/345
f 361/345/345 340/362/362 339/318/318 360/317/317
f 313/334/334 315/333/333 338/349/349 333/359/359
f 333/359/359 338/349/349 337/350/350 334/360/360
f 334/360/360 337/350/350 336/314/314 335/313/313
o Cube.024
v 0.272415 2.939323 -0.411635
v 0.282499 3.023064 -0.446751
v 0.276094 2.940221 -0.406690
v 0.286459 3.023971 -0.441743
v 0.301798 2.903169 -0.431748
v 0.355796 3.042030 -0.497005
v 0.305690 2.904076 -0.426603
v 0.358499 3.042674 -0.493283
v 0.282216 2.886443 -0.415026
v 0.271909 2.892767 -0.407417
v 0.270397 2.902973 -0.403331
v 0.327375 3.033522 -0.465284
v 0.334878 3.045956 -0.475509
v 0.346719 3.042145 -0.485896
v 0.266797 2.902074 -0.408302
v 0.268276 2.891869 -0.412468
v 0.278548 2.885544 -0.420155
v 0.343988 3.041500 -0.489600
v 0.331034 3.045048 -0.480668
v 0.323500 3.032615 -0.470420
v 0.274084 2.947926 -0.414838
v 0.276138 2.977373 -0.425593
v 0.275830 2.999714 -0.435571
v 0.279787 3.000621 -0.430591
v 0.280069 2.978280 -0.420659
v 0.277764 2.948824 -0.409890
v 0.352536 2.989181 -0.471522
v 0.340996 2.951595 -0.456545
v 0.324966 2.932078 -0.441660
v 0.348462 2.988274 -0.477029
v 0.337020 2.950687 -0.461848
v 0.321067 2.931171 -0.446775
v 0.332329 2.987529 -0.465954
v 0.320093 2.963971 -0.451504
v 0.304461 2.944455 -0.436857
v 0.326678 2.987263 -0.462084
v 0.314961 2.963346 -0.445986
v 0.297976 2.943440 -0.430850
v 0.310917 2.986518 -0.451591
v 0.299408 2.962600 -0.435886
v 0.288792 2.942959 -0.423790
v 0.314854 2.987425 -0.446471
v 0.303342 2.963508 -0.430845
v 0.292493 2.943857 -0.418754
v 0.330672 2.988170 -0.456804
v 0.318882 2.964253 -0.440876
v 0.301686 2.944339 -0.425752
v 0.336399 2.988436 -0.460554
v 0.324013 2.964878 -0.446365
v 0.308384 2.945362 -0.431804
vn -0.9752 0.0681 -0.2106
vn -0.2328 0.4081 0.8828
vn -0.1445 0.7314 0.6665
vn -0.7925 0.4912 -0.3614
vn 0.5938 0.1969 0.7801
vn 0.9713 -0.1023 0.2146
vn 0.8109 0.5850 -0.0131
vn 0.3837 0.8247 0.4155
vn 0.1864 -0.3976 -0.8984
vn 0.1647 0.4032 -0.9002
vn -0.5153 -0.2641 -0.8153
vn -0.7462 0.4313 -0.5072
vn 0.4246 -0.7677 0.4799
vn -0.3185 -0.8083 -0.4952
vn 0.1256 -0.6053 -0.7860
vn 0.7755 -0.4940 0.3931
vn 0.1716 0.6527 0.7379
vn -0.4278 0.5111 -0.7455
vn -0.6162 0.6366 -0.4637
vn 0.1107 0.8467 0.5203
vn -0.1593 0.2058 0.9655
vn -0.9774 0.1781 -0.1141
vn -0.9990 -0.0454 -0.0015
vn -0.1555 -0.0926 0.9835
vn -0.8512 -0.5023 -0.1518
vn -0.0769 -0.5282 0.8457
vn -0.5793 -0.1925 -0.7921
vn -0.5975 -0.1968 -0.7773
vn 0.5115 0.2646 0.8175
vn 0.6044 0.1968 0.7720
vn 0.6131 0.0188 0.7898
vn 0.6117 0.0244 0.7907
vn 0.6132 0.1301 0.7792
vn 0.6175 0.1244 0.7767
vn 0.6014 0.0648 0.7963
vn 0.5318 0.2410 0.8119
vn -0.1337 0.2989 0.9449
vn -0.1576 0.3612 0.9191
vn -0.6058 -0.0651 -0.7930
vn -0.6165 -0.0238 -0.7870
vn -0.5350 -0.2431 -0.8091
vn -0.6233 -0.1236 -0.7722
vn -0.6186 -0.0161 -0.7856
vn -0.6197 -0.1311 -0.7738
vn 0.0603 -0.5564 -0.8287
vn 0.1261 -0.5373 -0.8339
vn -0.9723 0.1232 -0.1985
vn -0.9861 -0.0204 -0.1651
vn 0.8313 -0.4070 0.3784
vn 0.9093 -0.3477 0.2288
vt 0.637209 0.409294
vt 0.636153 0.410021
vt 0.630057 0.425578
vt 0.631113 0.424851
vt 0.585835 0.409914
vt 0.571817 0.412481
vt 0.547197 0.477360
vt 0.557155 0.475537
vt 0.572873 0.411754
vt 0.547947 0.476843
vt 0.605900 0.405707
vt 0.576509 0.466662
vt 0.629635 0.339390
vt 0.630517 0.338695
vt 0.611292 0.352627
vt 0.610236 0.353354
vt 0.575454 0.467389
vt 0.557905 0.475020
vt 0.569624 0.475490
vt 0.568569 0.476217
vt 0.641010 0.371414
vt 0.641891 0.370719
vt 0.643721 0.347084
vt 0.642839 0.347780
vt 0.640743 0.341130
vt 0.639861 0.341825
vt 0.586891 0.409187
vt 0.591882 0.408273
vt 0.604844 0.406434
vt 0.590826 0.409001
vt 0.610056 0.379273
vt 0.616641 0.377646
vt 0.596434 0.393553
vt 0.601615 0.392385
vt 0.625450 0.376024
vt 0.615632 0.389818
vt 0.639539 0.377029
vt 0.637150 0.395861
vt 0.626332 0.375329
vt 0.617523 0.376950
vt 0.616688 0.389091
vt 0.602671 0.391658
vt 0.611112 0.378546
vt 0.597490 0.392826
vt 0.595323 0.372580
vt 0.581700 0.386860
vt 0.640421 0.376334
vt 0.638206 0.395133
vt 0.594267 0.373307
vt 0.580644 0.387587
s 1
usemtl Material.001
f 385/363/363 386/364/364 366/365/365 364/366/366
f 410/367/367 389/368/368 370/369/369 376/370/370
f 389/368/368 392/371/371 368/372/372 370/369/369
f 401/373/373 385/363/363 364/366/366 382/374/374
f 371/375/375 379/376/376 367/377/377 369/378/378
f 374/379/379 382/374/374 364/366/366 366/365/365
f 370/369/369 368/372/372 380/380/380 376/370/370
f 376/370/370 380/380/380 381/381/381 375/382/382
f 375/382/382 381/381/381 382/374/374 374/379/379
f 365/383/383 363/384/384 377/385/385 373/386/386
f 373/386/386 377/385/385 378/387/387 372/388/388
f 372/388/388 378/387/387 379/376/376 371/375/375
f 392/371/371 395/389/389 380/380/380 368/372/372
f 395/389/389 398/390/390 381/381/381 380/380/380
f 398/390/390 401/373/373 382/374/374 381/381/381
f 386/364/364 404/391/391 374/379/379 366/365/365
f 404/391/391 407/392/392 375/382/382 374/379/379
f 407/392/392 410/367/367 376/370/370 375/382/382
f 372/388/388 371/375/375 412/393/393 409/394/394
f 409/394/394 412/393/393 411/395/395 408/396/396
f 408/396/396 411/395/395 410/367/367 407/392/392
f 373/386/386 372/388/388 409/394/394 406/397/397
f 406/397/397 409/394/394 408/396/396 405/398/398
f 405/398/398 408/396/396 407/392/392 404/391/391
f 365/383/383 373/386/386 406/397/397 388/399/399
f 388/399/399 406/397/397 405/398/398 387/400/400
f 387/400/400 405/398/398 404/391/391 386/364/364
f 378/387/387 377/385/385 403/401/401 400/402/402
f 400/402/402 403/401/401 402/403/403 399/404/404
f 399/404/404 402/403/403 401/373/373 398/390/390
f 379/376/376 378/387/387 400/402/402 397/405/405
f 397/405/405 400/402/402 399/404/404 396/406/406
f 396/406/406 399/404/404 398/390/390 395/389/389
f 367/377/377 379/376/376 397/405/405 394/407/407
f 394/407/407 397/405/405 396/406/406 393/408/408
f 393/408/408 396/406/406 395/389/389 392/371/371
f 377/385/385 363/384/384 383/409/409 403/401/401
f 403/401/401 383/409/409 384/410/410 402/403/403
f 402/403/403 384/410/410 385/363/363 401/373/373
f 369/378/378 367/377/377 394/407/407 391/411/411
f 391/411/411 394/407/407 393/408/408 390/412/412
f 390/412/412 393/408/408 392/371/371 389/368/368
f 371/375/375 369/378/378 391/411/411 412/393/393
f 412/393/393 391/411/411 390/412/412 411/395/395
f 411/395/395 390/412/412 389/368/368 410/367/367
f 363/384/384 365/383/383 388/399/399 383/409/409
f 383/409/409 388/399/399 387/400/400 384/410/410
f 384/410/410 387/400/400 386/364/364 385/363/363
