# Blender 4.5.1 LTS
# www.blender.org
mtllib Untitled.mtl
o LowPoly
v 0.033226 -0.360482 -0.124002
v 0.031058 -0.206928 -0.115911
v 0.090776 -0.360482 -0.090776
v 0.084853 -0.206928 -0.084853
v 0.124002 -0.360482 -0.033226
v 0.115911 -0.206928 -0.031058
v 0.124002 -0.360482 0.033226
v 0.115911 -0.206928 0.031058
v 0.090776 -0.360482 0.090776
v 0.084853 -0.206928 0.084853
v 0.033226 -0.360482 0.124002
v 0.031058 -0.206928 0.115911
v -0.033226 -0.360482 0.124002
v -0.031058 -0.206928 0.115911
v -0.090776 -0.360482 0.090776
v -0.084853 -0.206928 0.084853
v -0.124002 -0.360482 0.033226
v -0.115911 -0.206928 0.031058
v -0.124002 -0.360482 -0.033226
v -0.115911 -0.206928 -0.031058
v -0.090776 -0.360482 -0.090776
v -0.084853 -0.206928 -0.084853
v -0.033226 -0.360482 -0.124002
v -0.031058 -0.206928 -0.115911
v 0.038810 -0.384248 -0.144842
v 0.106032 -0.384248 -0.106032
v 0.144842 -0.384248 -0.038810
v 0.144842 -0.384248 0.038810
v 0.106032 -0.384248 0.106032
v 0.038810 -0.384248 0.144842
v -0.038810 -0.384248 0.144842
v -0.106032 -0.384248 0.106032
v -0.144842 -0.384248 0.038810
v -0.144842 -0.384248 -0.038810
v -0.106032 -0.384248 -0.106032
v -0.038810 -0.384248 -0.144842
v 0.038810 -0.429479 -0.144842
v 0.106032 -0.429479 -0.106032
v 0.144842 -0.429479 -0.038810
v 0.144842 -0.429479 0.038810
v 0.106032 -0.429479 0.106032
v 0.038810 -0.429479 0.144842
v -0.038810 -0.429479 0.144842
v -0.106032 -0.429479 0.106032
v -0.144842 -0.429479 0.038810
v -0.144842 -0.429479 -0.038810
v -0.106032 -0.429479 -0.106032
v -0.038810 -0.429479 -0.144842
v 0.101097 -0.196808 -0.101097
v 0.037004 -0.196808 -0.138101
v 0.138101 -0.196808 -0.037004
v 0.138101 -0.196808 0.037004
v 0.101097 -0.196808 0.101097
v 0.037004 -0.196808 0.138101
v -0.037004 -0.196808 0.138101
v -0.101097 -0.196808 0.101097
v -0.138101 -0.196808 0.037004
v -0.138101 -0.196808 -0.037004
v -0.101097 -0.196808 -0.101097
v -0.037004 -0.196808 -0.138101
v 0.101097 -0.183469 -0.101097
v 0.037004 -0.183469 -0.138101
v 0.138101 -0.183469 -0.037004
v 0.138101 -0.183469 0.037004
v 0.101097 -0.183469 0.101097
v 0.037004 -0.183469 0.138101
v -0.037004 -0.183469 0.138101
v -0.101097 -0.183469 0.101097
v -0.138101 -0.183469 0.037004
v -0.138101 -0.183469 -0.037004
v -0.101097 -0.183469 -0.101097
v -0.037004 -0.183469 -0.138101
v 0.077656 -0.172889 -0.077656
v 0.028424 -0.172889 -0.106080
v 0.106080 -0.172889 -0.028424
v 0.106080 -0.172889 0.028424
v 0.077656 -0.172889 0.077656
v 0.028424 -0.172889 0.106080
v -0.028424 -0.172889 0.106080
v -0.077656 -0.172889 0.077656
v -0.106080 -0.172889 0.028424
v -0.106080 -0.172889 -0.028424
v -0.077656 -0.172889 -0.077656
v -0.028424 -0.172889 -0.106080
v 0.053073 0.730867 -0.053073
v 0.019426 0.730867 -0.072499
v 0.072498 0.730867 -0.019426
v 0.072498 0.730867 0.019426
v 0.053073 0.730867 0.053072
v 0.019426 0.730867 0.072498
v -0.019426 0.730867 0.072498
v -0.053072 0.730867 0.053072
v -0.072498 0.730867 0.019426
v -0.072498 0.730867 -0.019426
v -0.053072 0.730867 -0.053073
v -0.019426 0.730867 -0.072499
v 0.053073 0.748883 -0.053073
v 0.019426 0.748883 -0.072499
v 0.072498 0.748883 -0.019426
v 0.072498 0.748883 0.019426
v 0.053073 0.748883 0.053072
v 0.019426 0.748883 0.072498
v -0.019426 0.748883 0.072498
v -0.053072 0.748883 0.053072
v -0.072498 0.748883 0.019426
v -0.072498 0.748883 -0.019426
v -0.053072 0.748883 -0.053073
v -0.019426 0.748883 -0.072499
v -0.059220 0.739875 0.059220
v -0.080896 0.739875 0.021676
v 0.059220 0.739875 0.059220
v 0.021676 0.739875 0.080896
v -0.021676 0.739875 -0.080896
v 0.021676 0.739875 -0.080896
v 0.059220 0.739875 -0.059220
v 0.080896 0.739875 -0.021676
v -0.080896 0.739875 -0.021676
v -0.021676 0.739875 0.080896
v 0.080896 0.739875 0.021676
v -0.059220 0.739875 -0.059220
v 0.053073 0.842795 -0.053073
v 0.019426 0.842795 -0.072499
v 0.072498 0.842795 -0.019426
v 0.072498 0.842795 0.019426
v 0.053073 0.842795 0.053072
v 0.019426 0.842795 0.072498
v -0.019426 0.842795 0.072498
v -0.053072 0.842795 0.053072
v -0.072498 0.842795 0.019426
v -0.072498 0.842795 -0.019426
v -0.053072 0.842795 -0.053073
v -0.019426 0.842795 -0.072499
v 0.080750 0.855253 -0.021637
v 0.080750 0.855253 0.021637
v -0.080750 0.855253 -0.021637
v -0.059113 0.855253 -0.059113
v -0.021637 0.855253 0.080749
v -0.059113 0.855253 0.059113
v 0.059113 0.855253 0.059113
v -0.021637 0.855253 -0.080750
v 0.021637 0.855253 -0.080750
v 0.059113 0.855253 -0.059113
v -0.080750 0.855253 0.021637
v 0.021637 0.855253 0.080749
v 0.042176 0.867711 -0.059364
v 0.059364 0.867711 -0.042176
v 0.006843 0.867711 -0.072499
v 0.030323 0.867711 -0.066207
v 0.066207 0.867711 -0.030323
v 0.072498 0.867711 -0.006843
v 0.072498 0.867711 0.006843
v 0.066207 0.867711 0.030323
v 0.059364 0.867711 0.042175
v 0.042176 0.867711 0.059364
v 0.030323 0.867711 0.066207
v 0.006843 0.867711 0.072498
v -0.006843 0.867711 0.072498
v -0.030323 0.867711 0.066207
v -0.042176 0.867711 0.059364
v -0.059364 0.867711 0.042175
v -0.066207 0.867711 0.030323
v -0.072498 0.867711 0.006843
v -0.072498 0.867711 -0.006843
v -0.066207 0.867711 -0.030323
v -0.059364 0.867711 -0.042176
v -0.042176 0.867711 -0.059364
v -0.030323 0.867711 -0.066207
v -0.006843 0.867711 -0.072499
v 0.059364 0.912112 -0.042176
v 0.042176 0.912112 -0.059364
v 0.030323 0.912112 -0.066207
v 0.006843 0.912112 -0.072499
v 0.072498 0.912112 -0.006843
v 0.066207 0.912112 -0.030323
v 0.066207 0.912112 0.030323
v 0.072498 0.912112 0.006843
v 0.042176 0.912112 0.059364
v 0.059364 0.912112 0.042175
v 0.006843 0.912112 0.072498
v 0.030323 0.912112 0.066207
v -0.030323 0.912112 0.066207
v -0.006843 0.912112 0.072498
v -0.059364 0.912112 0.042175
v -0.042175 0.912112 0.059364
v -0.072498 0.912112 0.006843
v -0.066207 0.912112 0.030323
v -0.066207 0.912112 -0.030323
v -0.072498 0.912112 -0.006843
v -0.042175 0.912112 -0.059364
v -0.059364 0.912112 -0.042176
v -0.006843 0.912112 -0.072499
v -0.030323 0.912112 -0.066207
v -0.073959 0.890710 -0.052545
v -0.073959 0.912112 -0.052545
v -0.052545 0.912112 -0.073960
v -0.052545 0.890710 -0.073960
v -0.008526 0.912112 -0.090323
v -0.008526 0.890710 -0.090323
v -0.037778 0.890710 -0.082485
v -0.037778 0.912112 -0.082485
v 0.008526 0.890710 -0.090323
v 0.008526 0.912112 -0.090323
v 0.037778 0.912112 -0.082485
v 0.037778 0.890710 -0.082485
v 0.073959 0.912112 -0.052545
v 0.073959 0.890710 -0.052545
v 0.052545 0.890710 -0.073960
v 0.052545 0.912112 -0.073960
v -0.052545 0.890710 0.073959
v -0.052545 0.912112 0.073959
v -0.073959 0.912112 0.052545
v -0.073959 0.890710 0.052545
v -0.090323 0.912112 0.008526
v -0.090323 0.890710 0.008526
v -0.082485 0.890710 0.037778
v -0.082485 0.912112 0.037778
v 0.073959 0.890710 0.052545
v 0.073959 0.912112 0.052545
v 0.052545 0.912112 0.073959
v 0.052545 0.890710 0.073959
v 0.008526 0.912112 0.090323
v 0.008526 0.890710 0.090323
v 0.037778 0.890710 0.082485
v 0.037778 0.912112 0.082485
v 0.090323 0.912112 -0.008526
v 0.090323 0.890710 -0.008526
v 0.082485 0.890710 -0.037778
v 0.082485 0.912112 -0.037778
v -0.082485 0.912112 -0.037778
v -0.082485 0.890710 -0.037778
v -0.090323 0.890710 -0.008526
v -0.090323 0.912112 -0.008526
v -0.037778 0.912112 0.082485
v -0.037778 0.890710 0.082485
v -0.008526 0.890710 0.090323
v -0.008526 0.912112 0.090323
v 0.082485 0.912112 0.037778
v 0.082485 0.890710 0.037778
v 0.090323 0.890710 0.008526
v 0.090323 0.912112 0.008526
v -0.095996 0.920842 -0.055424
v -0.055423 0.920842 -0.095996
v 0.000000 0.920842 -0.110847
v 0.055423 0.920842 -0.095996
v 0.095996 0.920842 -0.055424
v -0.055423 0.920842 0.095996
v -0.095996 0.920842 0.055423
v -0.110847 0.920842 -0.000000
v 0.095996 0.920842 0.055423
v 0.055423 0.920842 0.095996
v 0.000000 0.920842 0.110847
v 0.110847 0.920842 -0.000000
v -0.102043 0.936885 -0.058915
v -0.058914 0.936885 -0.102043
v 0.000000 0.936885 -0.117829
v 0.058914 0.936885 -0.102043
v 0.102043 0.936885 -0.058914
v -0.058914 0.936885 0.102042
v -0.102043 0.936885 0.058914
v -0.117829 0.936885 -0.000000
v 0.102043 0.936885 0.058914
v 0.058914 0.936885 0.102042
v 0.000000 0.936885 0.117828
v 0.117829 0.936885 -0.000000
v -0.085402 0.940106 -0.049307
v -0.049307 0.940106 -0.085402
v 0.000000 0.940106 -0.098614
v 0.049307 0.940106 -0.085402
v 0.085402 0.940106 -0.049307
v -0.049307 0.940106 0.085402
v -0.085402 0.940106 0.049307
v -0.098613 0.940106 -0.000000
v 0.085402 0.940106 0.049307
v 0.049307 0.940106 0.085402
v 0.000000 0.940106 0.098613
v 0.098614 0.940106 -0.000000
v -0.083318 0.992034 -0.048104
v -0.048104 0.992034 -0.083319
v 0.000000 0.992034 -0.096208
v 0.048104 0.992034 -0.083319
v 0.083319 0.992034 -0.048104
v -0.048104 0.992034 0.083318
v -0.083318 0.992034 0.048104
v -0.096208 0.992034 -0.000000
v 0.083319 0.992034 0.048104
v 0.048104 0.992034 0.083318
v 0.000000 0.992034 0.096208
v 0.096208 0.992034 -0.000000
v -0.074084 0.992034 -0.042772
v -0.042772 0.992034 -0.074084
v 0.000000 0.992034 -0.085545
v 0.042772 0.992034 -0.074084
v 0.074084 0.992034 -0.042772
v -0.042772 0.992034 0.074083
v -0.074084 0.992034 0.042772
v -0.085544 0.992034 -0.000000
v 0.074084 0.992034 0.042772
v 0.042772 0.992034 0.074083
v 0.000000 0.992034 0.085544
v 0.085545 0.992034 -0.000000
v -0.043912 0.992004 -0.025353
v -0.025352 0.992004 -0.043912
v 0.000000 0.992004 -0.050705
v 0.025353 0.992004 -0.043912
v 0.043912 0.992004 -0.025353
v -0.025352 0.992004 0.043912
v -0.043912 0.992004 0.025352
v -0.050705 0.992004 -0.000000
v 0.043912 0.992004 0.025352
v 0.025353 0.992004 0.043912
v 0.000000 0.992004 0.050705
v 0.050705 0.992004 -0.000000
v -0.043912 1.055456 -0.025353
v -0.025352 1.055460 -0.043912
v 0.000000 1.055456 -0.050705
v 0.025353 1.055456 -0.043912
v 0.043912 1.055456 -0.025353
v -0.025352 1.055456 0.043912
v -0.043912 1.055456 0.025352
v -0.050705 1.055456 -0.000000
v 0.043912 1.055456 0.025352
v 0.025353 1.055456 0.043912
v 0.000000 1.055456 0.050705
v 0.050705 1.055456 -0.000000
v -0.050002 1.062295 -0.028869
v -0.028869 1.062295 -0.050002
v 0.000000 1.062295 -0.057738
v 0.028869 1.062295 -0.050002
v 0.050002 1.062295 -0.028869
v -0.028869 1.062295 0.050002
v -0.050002 1.062295 0.028869
v -0.057737 1.062295 -0.000000
v 0.050002 1.062295 0.028869
v 0.028869 1.062295 0.050002
v 0.000000 1.062295 0.057737
v 0.057738 1.062295 -0.000000
v 0.017377 1.090429 -0.030099
v 0.016289 1.099066 -0.009405
v 0.030099 1.090429 -0.017378
v 0.039326 1.077504 -0.022705
v 0.042566 1.062257 -0.024576
v 0.018809 1.099066 -0.000000
v 0.034755 1.090429 -0.000000
v 0.045409 1.077504 -0.000000
v 0.049151 1.062257 -0.000000
v 0.016289 1.099066 0.009404
v 0.030099 1.090429 0.017377
v 0.039326 1.077504 0.022704
v 0.042566 1.062257 0.024575
v 0.009405 1.099066 0.016289
v 0.017377 1.090429 0.030098
v 0.022705 1.077504 0.039325
v 0.024575 1.062257 0.042566
v 0.000000 1.099066 0.018809
v 0.000000 1.090429 0.034755
v 0.000000 1.077504 0.045409
v 0.000000 1.062257 0.049151
v -0.009405 1.099066 0.016289
v -0.017377 1.090429 0.030098
v -0.022705 1.077504 0.039325
v -0.024575 1.062257 0.042566
v -0.016289 1.099066 0.009404
v -0.030099 1.090429 0.017377
v -0.039326 1.077504 0.022704
v -0.042566 1.062257 0.024575
v -0.018809 1.099066 -0.000000
v -0.034755 1.090429 -0.000000
v -0.045409 1.077504 -0.000000
v -0.049151 1.062257 -0.000000
v -0.016289 1.099066 -0.009405
v -0.030099 1.090429 -0.017378
v -0.039326 1.077504 -0.022705
v -0.042566 1.062257 -0.024576
v -0.009405 1.099066 -0.016289
v -0.017377 1.090429 -0.030099
v -0.022705 1.077504 -0.039326
v -0.024575 1.062257 -0.042566
v 0.000000 1.099066 -0.018809
v 0.000000 1.090429 -0.034755
v 0.000000 1.077504 -0.045410
v 0.000000 1.062257 -0.049151
v 0.009405 1.099066 -0.016289
v 0.022705 1.077504 -0.039326
v 0.024575 1.062257 -0.042566
v 0.018809 1.121094 -0.000000
v 0.016289 1.121094 -0.009405
v 0.016289 1.121094 0.009404
v 0.009405 1.121094 0.016289
v 0.000000 1.121094 0.018809
v -0.009405 1.121094 0.016289
v -0.016289 1.121094 0.009404
v 0.000000 1.124310 -0.000000
v -0.018809 1.121094 -0.000000
v -0.016289 1.121094 -0.009405
v -0.009405 1.121094 -0.016289
v 0.000000 1.121094 -0.018809
v 0.009405 1.121094 -0.016289
v 0.119957 -0.283705 -0.032142
v 0.119957 -0.283705 0.032142
v 0.102493 -0.283705 -0.032142
v 0.102493 -0.283705 0.032142
v 0.102493 -0.429479 0.033226
v 0.102493 -0.429479 -0.033226
v 0.000000 1.122113 -0.001340
v 0.000000 1.122113 0.001340
v 0.000000 1.213675 -0.000513
v 0.000000 1.213675 0.000512
v -0.000845 0.991514 -0.090554
v 0.000845 0.991514 -0.090554
v -0.000845 1.060253 -0.050346
v 0.000845 1.060253 -0.050346
v 0.000845 0.991514 0.090554
v -0.000845 0.991514 0.090554
v 0.000845 1.060253 0.050345
v -0.000845 1.060253 0.050345
v 0.090554 0.991514 -0.000957
v 0.090554 0.991514 0.000957
v 0.050346 1.060253 -0.000957
v 0.050346 1.060253 0.000957
v -0.090554 0.991514 0.000957
v -0.090554 0.991514 -0.000957
v -0.050346 1.060253 0.000957
v -0.050346 1.060253 -0.000957
v 0.001340 1.122113 -0.000000
v -0.001340 1.122113 -0.000000
v 0.000513 1.213675 -0.000000
v -0.000513 1.213675 -0.000000
v 0.089728 0.991031 -0.000000
v 0.091380 0.991998 -0.000000
v 0.049520 1.059770 -0.000000
v 0.051172 1.060736 -0.000000
v 0.000000 0.991088 0.089824
v 0.000000 0.991941 0.091283
v 0.000000 1.059826 0.049616
v 0.000000 1.060679 0.051075
v -0.089728 0.991031 -0.000000
v -0.091380 0.991998 -0.000000
v -0.049520 1.059770 -0.000000
v -0.051172 1.060736 -0.000000
v 0.000000 0.991088 -0.089824
v 0.000000 0.991941 -0.091284
v 0.000000 1.059826 -0.049616
v 0.000000 1.060679 -0.051076
v -0.000789 1.018627 -0.065799
v 0.000790 1.018627 -0.065799
v 0.000790 1.018627 0.065799
v -0.000789 1.018627 0.065799
v 0.065799 1.018627 -0.000894
v 0.065799 1.018627 0.000894
v -0.065799 1.018627 0.000894
v -0.065799 1.018627 -0.000894
v 0.065028 1.018176 -0.000000
v 0.066570 1.019078 -0.000000
v 0.000000 1.018228 0.065117
v 0.000000 1.019026 0.066480
v -0.065027 1.018176 -0.000000
v -0.066570 1.019078 -0.000000
v 0.000000 1.018228 -0.065118
v 0.000000 1.019026 -0.066481
vn 0.2364 0.4067 -0.8824
vn 0.2584 0.0545 -0.9645
vn 0.7061 0.0545 -0.7061
vn 0.6460 0.4067 -0.6460
vn 0.9645 0.0545 -0.2584
vn 0.9373 0.0542 -0.3442
vn 0.9645 0.0545 0.2584
vn 0.9373 0.0542 0.3442
vn 0.7061 0.0545 0.7061
vn 0.6460 0.4067 0.6460
vn 0.2584 0.0545 0.9645
vn 0.2364 0.4067 0.8824
vn -0.2584 0.0545 0.9645
vn -0.2364 0.4067 0.8824
vn -0.7061 0.0545 0.7061
vn -0.6460 0.4067 0.6460
vn -0.9645 0.0545 0.2584
vn -0.8824 0.4067 0.2364
vn -0.9645 0.0545 -0.2584
vn -0.8824 0.4067 -0.2364
vn -0.7061 0.0545 -0.7061
vn -0.6460 0.4067 -0.6460
vn -0.3894 -0.9151 -0.1043
vn -0.3894 -0.9151 0.1043
vn -0.8317 -0.5086 0.2228
vn -0.8317 -0.5086 -0.2228
vn -0.2584 0.0545 -0.9645
vn -0.2364 0.4067 -0.8824
vn -0.2432 0.3417 0.9078
vn 0.2432 0.3417 0.9078
vn -0.6645 0.3417 0.6645
vn -0.9078 0.3417 0.2432
vn -0.9659 -0.0000 0.2588
vn -0.7071 -0.0000 0.7071
vn 0.6645 0.3417 0.6645
vn 0.7956 0.3950 0.4593
vn 0.8171 0.3314 0.4717
vn 0.2432 0.3417 -0.9078
vn -0.2432 0.3417 -0.9078
vn 0.6645 0.3417 -0.6645
vn -0.6645 0.3417 -0.6645
vn 0.7956 0.3950 -0.4593
vn 0.8171 0.3314 -0.4717
vn -0.9078 0.3417 -0.2432
vn 0.0662 -0.0123 -0.9977
vn 0.2588 -0.0000 -0.9659
vn 0.1555 -0.0329 -0.9873
vn 0.2588 -0.0000 0.9659
vn 0.7071 -0.0000 0.7071
vn -0.2588 -0.0000 -0.9659
vn 0.8660 -0.0000 -0.5000
vn 0.7071 -0.0000 -0.7071
vn -0.9659 -0.0000 -0.2588
vn -0.2588 -0.0000 0.9659
vn 0.0662 -0.0122 0.9977
vn 0.1556 -0.0329 0.9873
vn -0.7071 -0.0000 -0.7071
vn 0.8660 -0.0000 0.5000
vn -0.2228 -0.5086 -0.8317
vn -0.6088 -0.5086 -0.6088
vn -0.5917 0.5476 -0.5917
vn -0.2166 0.5476 -0.8083
vn -0.2851 -0.9151 0.2851
vn -0.6088 -0.5086 0.6088
vn -0.1043 -0.9151 0.3894
vn -0.2228 -0.5086 0.8317
vn 0.1043 -0.9151 0.3894
vn 0.2228 -0.5086 0.8317
vn 0.2851 -0.9151 0.2851
vn 0.6088 -0.5086 0.6088
vn 0.3894 -0.9151 0.1043
vn 0.8317 -0.5086 0.2228
vn 0.1043 -0.9151 -0.3894
vn -0.1043 -0.9151 -0.3894
vn 0.2228 -0.5086 -0.8317
vn 0.2851 -0.9151 -0.2851
vn 0.6088 -0.5086 -0.6088
vn 0.3894 -0.9151 -0.1043
vn 0.8317 -0.5086 -0.2228
vn -0.2851 -0.9151 -0.2851
vn 0.5917 0.5476 0.5917
vn 0.8083 0.5476 0.2166
vn 0.2937 0.9527 0.0787
vn 0.2150 0.9527 0.2150
vn 0.2166 0.5476 -0.8083
vn 0.5917 0.5476 -0.5917
vn -0.5917 0.5476 0.5917
vn -0.8083 0.5476 0.2166
vn 0.2166 0.5476 0.8083
vn 0.8083 0.5476 -0.2166
vn -0.8083 0.5476 -0.2166
vn -0.2166 0.5476 0.8083
vn -0.2150 0.9527 -0.2150
vn -0.0787 0.9527 -0.2937
vn 0.0787 0.9527 -0.2937
vn 0.2150 0.9527 -0.2150
vn -0.2150 0.9527 0.2150
vn -0.2937 0.9527 0.0787
vn 0.0787 0.9527 0.2937
vn 0.2937 0.9527 -0.0787
vn -0.2937 0.9527 -0.0787
vn -0.0787 0.9527 0.2937
vn -0.5088 0.6945 0.5088
vn -0.6950 0.6945 0.1862
vn 0.5088 0.6945 0.5088
vn 0.1862 0.6945 0.6950
vn -0.1862 0.6945 -0.6950
vn 0.1862 0.6945 -0.6950
vn 0.9659 -0.0000 -0.2588
vn 0.5088 0.6945 -0.5088
vn 0.6950 0.6945 -0.1862
vn -0.6950 0.6945 -0.1862
vn -0.1862 0.6945 0.6950
vn 0.9659 -0.0000 0.2588
vn 0.6950 0.6945 0.1862
vn -0.5088 0.6945 -0.5088
vn 0.5088 -0.6945 -0.5088
vn 0.1862 -0.6945 -0.6950
vn -0.1862 -0.6945 -0.6950
vn -0.5088 -0.6945 -0.5088
vn 0.5088 -0.6945 0.5088
vn 0.6950 -0.6945 0.1862
vn -0.5088 -0.6945 0.5088
vn -0.1862 -0.6945 0.6950
vn -0.6950 -0.6945 -0.1862
vn 0.6950 -0.6945 -0.1862
vn 0.1862 -0.6945 0.6950
vn -0.6950 -0.6945 0.1862
vn -0.2586 0.0384 -0.9652
vn 0.2586 0.0384 -0.9652
vn -0.2587 0.0331 -0.9654
vn -0.7067 0.0331 -0.7067
vn -0.4480 0.5957 -0.6667
vn -0.3533 0.5957 -0.7213
vn -0.9092 -0.0000 0.4164
vn -0.7904 -0.6126 -0.0000
vn 0.3952 -0.6126 -0.6845
vn 0.6845 -0.6126 0.3952
vn 0.9956 -0.0000 -0.0940
vn -0.0940 -0.0000 0.9956
vn -0.9092 -0.0000 -0.4164
vn 0.7067 0.0331 -0.7067
vn 0.2587 0.0331 -0.9654
vn 0.3533 0.5957 -0.7213
vn 0.4480 0.5957 -0.6667
vn 0.4164 -0.0000 -0.9092
vn -0.2135 -0.5655 0.7966
vn 0.2135 -0.5655 0.7966
vn 0.2587 0.0331 0.9654
vn -0.2587 0.0331 0.9654
vn -0.7966 -0.5655 -0.2135
vn -0.7966 -0.5655 0.2135
vn -0.9654 0.0331 0.2587
vn -0.9654 0.0331 -0.2587
vn 0.7966 -0.5655 -0.2135
vn 0.5832 -0.5655 -0.5832
vn 0.9654 0.0331 -0.2587
vn 0.2135 -0.5655 -0.7966
vn -0.2135 -0.5655 -0.7966
vn 0.5832 -0.5655 0.5832
vn 0.7067 0.0331 0.7067
vn -0.5832 -0.5655 0.5832
vn -0.7067 0.0331 0.7067
vn -0.5832 -0.5655 -0.5832
vn 0.7966 -0.5655 0.2135
vn 0.9654 0.0331 0.2587
vn 0.6667 0.5957 -0.4480
vn 0.7213 0.5957 -0.3533
vn -0.6667 0.5957 0.4480
vn -0.7213 0.5957 0.3533
vn 0.4480 0.5957 0.6667
vn 0.3533 0.5957 0.7213
vn -0.0547 0.5957 -0.8014
vn 0.0547 0.5957 -0.8014
vn -0.8014 0.5957 0.0547
vn -0.8014 0.5957 -0.0547
vn 0.0547 0.5957 0.8014
vn -0.0547 0.5957 0.8014
vn 0.8014 0.5957 -0.0547
vn 0.8014 0.5957 0.0547
vn -0.7213 0.5957 -0.3533
vn -0.6667 0.5957 -0.4480
vn -0.3533 0.5957 0.7213
vn -0.4480 0.5957 0.6667
vn 0.7213 0.5957 0.3533
vn 0.6667 0.5957 0.4480
vn 0.8152 -0.0000 -0.5792
vn -0.8660 -0.0000 0.5000
vn 0.5000 -0.0000 0.8660
vn -0.5000 -0.0000 -0.8660
vn -1.0000 -0.0000 -0.0000
vn -0.0000 -0.0000 1.0000
vn 1.0000 -0.0000 -0.0000
vn -0.8660 -0.0000 -0.5000
vn -0.5000 -0.0000 0.8660
vn -0.0000 -0.0000 -1.0000
vn 0.5000 -0.0000 -0.8660
vn -0.5792 -0.0000 -0.8152
vn 0.8152 -0.0000 0.5792
vn -0.0940 -0.0000 -0.9956
vn 0.3952 -0.6126 0.6845
vn -0.8152 -0.0000 -0.5792
vn -0.6845 -0.6126 -0.3952
vn 0.4164 -0.0000 0.9092
vn 0.6845 -0.6126 -0.3952
vn 0.5792 -0.0000 -0.8152
vn -0.0000 -0.6126 0.7904
vn 0.5792 -0.0000 0.8152
vn -0.4164 -0.0000 0.9092
vn -0.3952 -0.6126 -0.6845
vn -0.8152 -0.0000 0.5792
vn 0.0940 -0.0000 -0.9956
vn 0.0940 -0.0000 0.9956
vn -0.0000 -0.6126 -0.7904
vn -0.3952 -0.6126 0.6845
vn -0.4164 -0.0000 -0.9092
vn -0.9956 -0.0000 0.0940
vn 0.9092 -0.0000 0.4164
vn -0.5792 -0.0000 0.8152
vn 0.9092 -0.0000 -0.4164
vn -0.9956 -0.0000 -0.0940
vn 0.7904 -0.6126 -0.0000
vn 0.9956 -0.0000 0.0940
vn -0.6845 -0.6126 0.3952
vn -0.0534 -0.9525 0.2999
vn -0.1037 -0.9525 0.2864
vn -0.0000 -1.0000 -0.0000
vn 0.0534 -0.9525 0.2999
vn 0.1037 -0.9525 0.2864
vn 0.2330 -0.9525 0.1961
vn 0.1961 -0.9525 0.2330
vn 0.2999 -0.9525 0.0534
vn 0.2864 -0.9525 0.1037
vn 0.2864 -0.9525 -0.1037
vn 0.2999 -0.9525 -0.0534
vn 0.1961 -0.9525 -0.2330
vn 0.2330 -0.9525 -0.1961
vn 0.0534 -0.9525 -0.2999
vn 0.1037 -0.9525 -0.2864
vn -0.1037 -0.9525 -0.2864
vn -0.0534 -0.9525 -0.2999
vn -0.2330 -0.9525 -0.1961
vn -0.1961 -0.9525 -0.2330
vn -0.2999 -0.9525 -0.0534
vn -0.2864 -0.9525 -0.1037
vn -0.2864 -0.9525 0.1037
vn -0.2999 -0.9525 0.0534
vn -0.1961 -0.9525 0.2330
vn -0.2330 -0.9525 0.1961
vn 0.6425 -0.6705 0.3709
vn 0.3709 -0.6705 0.6425
vn -0.3709 -0.6705 0.6425
vn -0.6425 -0.6705 0.3709
vn -0.7419 -0.6705 -0.0000
vn -0.3709 -0.6705 -0.6425
vn 0.7419 -0.6705 -0.0000
vn 0.3709 -0.6705 -0.6425
vn 0.6425 -0.6705 -0.3709
vn -0.0000 -0.6705 -0.7419
vn -0.0000 -0.6705 0.7419
vn -0.6425 -0.6705 -0.3709
vn 0.4515 0.4296 0.7821
vn -0.0000 0.4296 0.9030
vn -0.9030 0.4296 -0.0000
vn -0.7821 0.4296 -0.4515
vn 0.7821 0.4296 0.4515
vn -0.7821 0.4296 0.4515
vn 0.9030 0.4296 -0.0000
vn -0.4515 0.4296 0.7821
vn 0.7821 0.4296 -0.4515
vn 0.4515 0.4296 -0.7821
vn -0.0000 0.4296 -0.9030
vn -0.4515 0.4296 -0.7821
vn 0.0827 0.9862 -0.1432
vn 0.1432 0.9862 -0.0827
vn -0.0000 0.9862 -0.1653
vn -0.0827 0.9862 -0.1432
vn -0.0000 0.9862 0.1653
vn -0.0827 0.9862 0.1432
vn -0.1432 0.9862 -0.0827
vn 0.0827 0.9862 0.1432
vn -0.1653 0.9862 -0.0000
vn 0.1432 0.9862 0.0827
vn -0.1432 0.9862 0.0827
vn 0.1653 0.9862 -0.0000
vn 0.4995 0.0463 0.8651
vn -0.0000 0.0463 0.9989
vn -0.9989 0.0463 -0.0000
vn -0.8651 0.0463 -0.4995
vn 0.8651 0.0463 0.4995
vn -0.8651 0.0463 0.4995
vn 0.9989 0.0463 -0.0000
vn -0.4995 0.0463 0.8651
vn 0.8651 0.0463 -0.4995
vn 0.4995 0.0463 -0.8651
vn -0.0000 0.0463 -0.9989
vn -0.4995 0.0463 -0.8651
vn -0.0000 1.0000 -0.0000
vn 0.3674 0.6783 -0.6363
vn 0.6363 0.6783 -0.3674
vn -0.0000 0.6783 -0.7348
vn -0.3674 0.6783 -0.6363
vn -0.0000 0.6783 0.7348
vn -0.3674 0.6783 0.6363
vn -0.6363 0.6783 -0.3674
vn 0.3674 0.6783 0.6363
vn -0.7348 0.6783 -0.0000
vn 0.6363 0.6783 0.3674
vn -0.6363 0.6783 0.3674
vn 0.7348 0.6783 -0.0000
vn -0.6972 -0.7169 -0.0000
vn -0.9427 0.3335 -0.0000
vn -0.8164 0.3335 -0.4714
vn -0.6038 -0.7169 -0.3486
vn -0.0000 -0.7169 -0.6972
vn -0.0000 0.3335 -0.9428
vn 0.4714 0.3335 -0.8164
vn 0.3486 -0.7169 -0.6038
vn -0.3486 -0.7170 -0.6037
vn -0.4714 0.3335 -0.8164
vn 0.8164 0.3335 -0.4714
vn 0.6038 -0.7169 -0.3486
vn -0.3486 -0.7169 0.6038
vn -0.4714 0.3335 0.8164
vn -0.8164 0.3335 0.4714
vn -0.6038 -0.7169 0.3486
vn 0.9427 0.3335 -0.0000
vn 0.6972 -0.7169 -0.0000
vn 0.3486 -0.7169 0.6038
vn 0.4714 0.3335 0.8164
vn -0.0000 0.3335 0.9427
vn -0.0000 -0.7169 0.6972
vn 0.8164 0.3335 0.4714
vn 0.6038 -0.7169 0.3486
vn 0.4856 0.2383 -0.8411
vn 0.4504 0.4343 -0.7801
vn 0.7801 0.4343 -0.4504
vn 0.8411 0.2383 -0.4856
vn 0.3269 0.7566 -0.5663
vn 0.2381 0.8793 -0.4124
vn 0.4124 0.8793 -0.2381
vn 0.5663 0.7566 -0.3269
vn 0.4012 0.5967 0.6949
vn -0.0000 0.5967 0.8024
vn 0.6539 0.7566 -0.0000
vn 0.9008 0.4343 -0.0000
vn 0.6949 0.5967 0.4012
vn 0.9712 0.2383 -0.0000
vn 0.4763 0.8793 -0.0000
vn 0.5663 0.7566 0.3269
vn 0.7801 0.4343 0.4504
vn -0.8024 0.5967 -0.0000
vn -0.6949 0.5967 -0.4012
vn 0.8411 0.2383 0.4856
vn 0.4124 0.8793 0.2381
vn 0.4504 0.4343 0.7801
vn 0.4856 0.2383 0.8411
vn 0.2381 0.8793 0.4124
vn 0.3269 0.7566 0.5663
vn 0.8024 0.5967 -0.0000
vn -0.0000 0.4343 0.9008
vn -0.0000 0.2383 0.9712
vn -0.0000 0.8793 0.4762
vn -0.0000 0.7566 0.6539
vn 0.4012 0.5967 -0.6949
vn 0.6949 0.5967 -0.4012
vn -0.3269 0.7566 0.5663
vn -0.4504 0.4343 0.7801
vn -0.4012 0.5967 0.6949
vn -0.6949 0.5967 0.4012
vn -0.4856 0.2383 0.8411
vn -0.2381 0.8793 0.4124
vn -0.5663 0.7566 0.3269
vn -0.7801 0.4343 0.4504
vn -0.8411 0.2383 0.4856
vn -0.4124 0.8793 0.2381
vn -0.9008 0.4343 -0.0000
vn -0.9712 0.2383 -0.0000
vn -0.4762 0.8793 -0.0000
vn -0.6539 0.7566 -0.0000
vn -0.0000 0.5967 -0.8024
vn -0.4124 0.8793 -0.2381
vn -0.5663 0.7566 -0.3269
vn -0.7801 0.4343 -0.4504
vn -0.4012 0.5967 -0.6949
vn -0.8411 0.2383 -0.4856
vn -0.3269 0.7566 -0.5663
vn -0.4504 0.4343 -0.7801
vn -0.4856 0.2383 -0.8411
vn -0.2381 0.8793 -0.4124
vn -0.0000 0.4343 -0.9008
vn -0.0000 0.2383 -0.9712
vn -0.0000 0.8793 -0.4762
vn -0.0000 0.7566 -0.6539
vn -0.0045 1.0000 -0.0000
vn -0.0039 1.0000 -0.0022
vn -0.0039 1.0000 0.0022
vn -0.0022 1.0000 0.0039
vn -0.0000 1.0000 0.0045
vn 0.0022 1.0000 0.0039
vn 0.0039 1.0000 0.0022
vn 0.0045 1.0000 -0.0000
vn 0.0039 1.0000 -0.0022
vn 0.0022 1.0000 -0.0039
vn -0.0000 1.0000 -0.0045
vn -0.0022 1.0000 -0.0039
vn -0.0000 -0.0141 -0.9999
vn 0.0661 -0.0122 -0.9977
vn 0.0041 -0.0130 -0.9999
vn -0.0000 -0.0141 0.9999
vn 0.0041 -0.0130 0.9999
vn 0.1102 -0.0344 0.9933
vn 0.1102 -0.0344 -0.9933
vn 0.1555 -0.0329 0.9873
vn 0.7066 0.0384 -0.7066
vn 0.9652 0.0384 -0.2586
vn -0.7066 0.0384 -0.7066
vn 0.9652 0.0384 0.2586
vn 0.7066 0.0384 0.7066
vn 0.2586 0.0384 0.9652
vn -0.2586 0.0384 0.9652
vn -0.7066 0.0384 0.7066
vn -0.9652 0.0384 0.2586
vn -0.9652 0.0384 -0.2586
vn -0.0000 -0.3480 0.9375
vn -0.0000 -0.3480 -0.9375
vn -0.9375 -0.3480 -0.0000
vn 0.9375 -0.3480 -0.0000
vn 0.7385 -0.6743 -0.0000
vn -0.7385 -0.6743 -0.0000
vn -0.0000 -0.6743 -0.7385
vn -0.0000 -0.6743 0.7385
vt 0.093895 0.536756
vt 0.263837 0.555213
vt 0.258881 0.620622
vt 0.087627 0.612091
vt 0.256925 0.687193
vt 0.174494 0.685934
vt 0.256847 0.753792
vt 0.174413 0.754858
vt 0.258646 0.820367
vt 0.086309 0.827476
vt 0.263825 0.886371
vt 0.090456 0.904089
vt 0.272579 0.954931
vt 0.103165 0.978996
vt 0.383487 0.537461
vt 0.544207 0.557455
vt 0.538114 0.620727
vt 0.369959 0.609217
vt 0.536272 0.685040
vt 0.364427 0.684715
vt 0.538980 0.750326
vt 0.365088 0.761971
vt 0.546161 0.816350
vt 0.372428 0.839430
vt 0.580794 0.008604
vt 0.506216 0.009351
vt 0.505820 0.035932
vt 0.588225 0.037813
vt 0.557095 0.884859
vt 0.387884 0.914318
vt 0.109309 0.464342
vt 0.272579 0.490897
vt 0.067863 0.991384
vt 0.054654 0.907544
vt 0.336819 0.604167
vt 0.329658 0.682875
vt 0.281330 0.681339
vt 0.288919 0.598257
vt 0.051843 0.826569
vt 0.091442 0.752187
vt 0.058496 0.743468
vt 0.060368 0.531193
vt 0.078413 0.451177
vt 0.052088 0.610872
vt 0.352884 0.928018
vt 0.336496 0.844321
vt 0.090816 0.687855
vt 0.054208 0.695469
vt 0.329697 0.763172
vt 0.352987 0.525236
vt 0.478027 0.142671
vt 0.451763 0.119086
vt 0.402021 0.119356
vt 0.006272 0.912725
vt 0.002209 0.826923
vt 0.011753 0.524685
vt 0.028228 0.440447
vt 0.004033 0.695585
vt 0.003833 0.609481
vt 0.280895 0.765931
vt 0.018033 0.998238
vt 0.478027 0.142671
vt 0.288277 0.851380
vt 0.303698 0.515599
vt 0.006583 0.739973
vt 0.303169 0.936696
vt 0.293341 0.033153
vt 0.222601 0.036917
vt 0.223417 0.050726
vt 0.293569 0.046729
vt 0.434750 0.006570
vt 0.434301 0.033336
vt 0.363380 0.005447
vt 0.363662 0.032176
vt 0.292237 0.006413
vt 0.220876 0.009399
vt 0.146443 0.012258
vt 0.141330 0.043504
vt 0.363662 0.032176
vt 0.434750 0.006570
vt 0.580794 0.008604
vt 0.506216 0.009351
vt 0.505820 0.035932
vt 0.588225 0.037813
vt 0.220876 0.009400
vt 0.146443 0.012258
vt 0.143110 0.059789
vt 0.159828 0.098243
vt 0.227443 0.087264
vt 0.363423 0.045766
vt 0.433688 0.047022
vt 0.433688 0.047021
vt 0.505005 0.049928
vt 0.293569 0.046729
vt 0.587837 0.054450
vt 0.363423 0.045766
vt 0.587837 0.054450
vt 0.143110 0.059789
vt 0.227443 0.087265
vt 0.295315 0.084367
vt 0.363946 0.083907
vt 0.433024 0.085521
vt 0.433024 0.085521
vt 0.502598 0.089471
vt 0.502598 0.089471
vt 0.573785 0.098243
vt 0.363946 0.083907
vt 0.573784 0.098243
vt 0.436282 0.977884
vt 0.479329 0.978047
vt 0.479511 0.991672
vt 0.436407 0.991958
vt 0.565159 0.977570
vt 0.608205 0.977733
vt 0.608144 0.990974
vt 0.565335 0.991131
vt 0.522244 0.977809
vt 0.479329 0.978047
vt 0.479153 0.964487
vt 0.522053 0.964220
vt 0.608205 0.977733
vt 0.565159 0.977570
vt 0.564976 0.963945
vt 0.608081 0.963660
vt 0.388258 0.977020
vt 0.390911 0.992736
vt 0.522244 0.977809
vt 0.522435 0.991397
vt 0.656230 0.978597
vt 0.653577 0.962882
vt 0.436283 0.977884
vt 0.388258 0.977020
vt 0.391419 0.962882
vt 0.436344 0.964644
vt 0.656230 0.978597
vt 0.653069 0.992736
vt 0.565335 0.991130
vt 0.522435 0.991397
vt 0.479512 0.991672
vt 0.436407 0.991957
vt 0.653577 0.962882
vt 0.479153 0.964487
vt 0.522053 0.964220
vt 0.390911 0.992736
vt 0.653069 0.992736
vt 0.564976 0.963945
vt 0.391418 0.962882
vt 0.436344 0.964644
vt 0.722805 0.997245
vt 0.680116 0.999371
vt 0.620757 0.006166
vt 0.683219 0.003056
vt 0.142604 0.425393
vt 0.145233 0.379614
vt 0.160821 0.393857
vt 0.160854 0.409151
vt 0.543497 0.936897
vt 0.494668 0.936897
vt 0.519961 0.917207
vt 0.543497 0.917207
vt 0.235272 0.975883
vt 0.235272 0.990935
vt 0.267271 0.992785
vt 0.267271 0.974033
vt 0.235272 0.975883
vt 0.235272 0.990935
vt 0.494668 0.936897
vt 0.543497 0.917208
vt 0.519961 0.917208
vt 0.543497 0.936897
vt 0.543497 0.917208
vt 0.519961 0.917208
vt 0.142603 0.425393
vt 0.145233 0.379614
vt 0.160821 0.393857
vt 0.543497 0.917208
vt 0.519960 0.917208
vt 0.129300 0.378961
vt 0.130188 0.335360
vt 0.148220 0.333550
vt 0.145233 0.379614
vt 0.126298 0.421801
vt 0.129300 0.378961
vt 0.145233 0.379614
vt 0.142603 0.425393
vt 0.130188 0.335360
vt 0.148220 0.333550
vt 0.126298 0.421801
vt 0.129300 0.378961
vt 0.145233 0.379614
vt 0.142604 0.425393
vt 0.130188 0.335360
vt 0.148220 0.333550
vt 0.130188 0.335359
vt 0.148220 0.333550
vt 0.142604 0.425393
vt 0.163981 0.351730
vt 0.162789 0.367346
vt 0.160854 0.409151
vt 0.162789 0.367346
vt 0.160821 0.393857
vt 0.163981 0.351730
vt 0.160822 0.393857
vt 0.162789 0.367346
vt 0.163981 0.437221
vt 0.163981 0.437221
vt 0.100378 0.707406
vt 0.149207 0.707406
vt 0.149207 0.734138
vt 0.100378 0.734138
vt 0.149207 0.734138
vt 0.100378 0.734138
vt 0.100378 0.707406
vt 0.149207 0.707406
vt 0.100378 0.707406
vt 0.149207 0.707406
vt 0.149207 0.734138
vt 0.100378 0.734138
vt 0.149207 0.734138
vt 0.981262 0.978087
vt 0.962510 0.978087
vt 0.962510 0.954551
vt 0.981262 0.954551
vt 0.981262 0.978088
vt 0.962510 0.978088
vt 0.981262 0.978087
vt 0.981262 0.954551
vt 0.981262 0.954551
vt 0.962510 0.978087
vt 0.962510 0.954551
vt 0.981262 0.954551
vt 0.981262 0.954551
vt 0.981262 0.978087
vt 0.962510 0.978087
vt 0.519961 0.917207
vt 0.235272 0.990935
vt 0.235272 0.975883
vt 0.543497 0.917207
vt 0.235272 0.990934
vt 0.267271 0.992785
vt 0.543497 0.917207
vt 0.267271 0.974033
vt 0.267271 0.974033
vt 0.267271 0.992785
vt 0.519960 0.917207
vt 0.543497 0.936897
vt 0.235272 0.975883
vt 0.967509 0.935128
vt 0.967509 0.909752
vt 0.982301 0.912256
vt 0.982301 0.932624
vt 0.967509 0.909752
vt 0.982301 0.932624
vt 0.080844 0.311790
vt 0.059706 0.294269
vt 0.055002 0.355469
vt 0.077755 0.346475
vt 0.077755 0.346475
vt 0.055003 0.355469
vt 0.076893 0.366096
vt 0.080844 0.311790
vt 0.059705 0.294269
vt 0.077756 0.346475
vt 0.076893 0.366096
vt 0.055002 0.355469
vt 0.057636 0.416925
vt 0.079823 0.399989
vt 0.077756 0.346475
vt 0.055003 0.355469
vt 0.076893 0.366096
vt 0.057636 0.416925
vt 0.085463 0.419108
vt 0.077755 0.346475
vt 0.057636 0.416925
vt 0.079823 0.399989
vt 0.080844 0.311790
vt 0.059706 0.294269
vt 0.079823 0.399989
vt 0.059706 0.294269
vt 0.037619 0.355578
vt 0.036368 0.419108
vt 0.037619 0.355578
vt 0.036367 0.419108
vt 0.039566 0.290887
vt 0.037619 0.355578
vt 0.037619 0.355578
vt 0.036368 0.419108
vt 0.039566 0.290887
vt 0.039566 0.290887
vt 0.039566 0.290887
vt 0.017602 0.355203
vt 0.015372 0.412685
vt 0.016059 0.296747
vt 0.017601 0.355203
vt 0.016059 0.296747
vt 0.017601 0.355203
vt 0.016059 0.296747
vt 0.016059 0.296747
vt 0.016059 0.296747
vt 0.017601 0.355203
vt 0.015372 0.412685
vt 0.513715 0.190196
vt 0.513031 0.247360
vt 0.567783 0.248671
vt 0.569837 0.191540
vt 0.401457 0.191540
vt 0.403511 0.248671
vt 0.458263 0.247360
vt 0.457578 0.190196
vt 0.457578 0.190196
vt 0.513716 0.190196
vt 0.567783 0.248671
vt 0.569837 0.191541
vt 0.401457 0.191541
vt 0.403511 0.248671
vt 0.513715 0.190196
vt 0.513031 0.247359
vt 0.457578 0.190196
vt 0.458263 0.247359
vt 0.401457 0.191540
vt 0.569837 0.191540
vt 0.401457 0.191541
vt 0.354517 0.261999
vt 0.343190 0.258964
vt 0.318841 0.301137
vt 0.327133 0.309429
vt 0.354517 0.207232
vt 0.343190 0.210267
vt 0.327133 0.159801
vt 0.318841 0.168094
vt 0.150121 0.261999
vt 0.161449 0.258964
vt 0.161449 0.210267
vt 0.150121 0.207232
vt 0.279703 0.132418
vt 0.276668 0.143745
vt 0.177505 0.309429
vt 0.185797 0.301137
vt 0.224935 0.132418
vt 0.227970 0.143745
vt 0.224935 0.336813
vt 0.227970 0.325486
vt 0.177505 0.159801
vt 0.185797 0.168094
vt 0.279703 0.336813
vt 0.276668 0.325486
vt 0.376847 0.310393
vt 0.432916 0.363412
vt 0.455622 0.351141
vt 0.433630 0.277347
vt 0.344161 0.367380
vt 0.419321 0.385512
vt 0.344161 0.433025
vt 0.418509 0.411543
vt 0.588918 0.432799
vt 0.513758 0.414667
vt 0.500162 0.436768
vt 0.556232 0.489787
vt 0.376863 0.490056
vt 0.430145 0.434470
vt 0.588918 0.367155
vt 0.514570 0.388636
vt 0.433752 0.522962
vt 0.451786 0.448197
vt 0.556216 0.310123
vt 0.502934 0.365709
vt 0.499449 0.522832
vt 0.477457 0.449038
vt 0.499327 0.277217
vt 0.481293 0.351982
vt 0.583520 0.917962
vt 0.653300 0.917962
vt 0.653300 0.889097
vt 0.583520 0.889097
vt 0.583522 0.889097
vt 0.653302 0.889097
vt 0.653302 0.860232
vt 0.583522 0.860232
vt 0.653302 0.831368
vt 0.583522 0.831368
vt 0.583522 0.917961
vt 0.653302 0.917961
vt 0.583522 0.860232
vt 0.653302 0.860232
vt 0.653302 0.831368
vt 0.583522 0.831368
vt 0.583522 0.889097
vt 0.653302 0.889097
vt 0.583522 0.917961
vt 0.653302 0.917961
vt 0.583520 0.860233
vt 0.653305 0.860233
vt 0.653300 0.831368
vt 0.583520 0.831368
vt 0.300407 0.477773
vt 0.310676 0.479040
vt 0.308313 0.449524
vt 0.298622 0.450151
vt 0.296998 0.421571
vt 0.308143 0.421499
vt 0.310280 0.387115
vt 0.297305 0.389017
vt 0.262561 0.400491
vt 0.245756 0.402709
vt 0.245349 0.427076
vt 0.262660 0.429237
vt 0.228398 0.405423
vt 0.208620 0.409017
vt 0.208669 0.420156
vt 0.228057 0.424287
vt 0.342385 0.108003
vt 0.342385 0.118710
vt 0.366611 0.118710
vt 0.366611 0.108003
vt 0.220894 0.442572
vt 0.237713 0.451903
vt 0.342385 0.129418
vt 0.366611 0.129418
vt 0.255192 0.457978
vt 0.204296 0.430330
vt 0.239242 0.378160
vt 0.221855 0.386535
vt 0.228398 0.405424
vt 0.342385 0.118710
vt 0.342385 0.108003
vt 0.366611 0.108003
vt 0.366611 0.118710
vt 0.255909 0.373017
vt 0.262561 0.400491
vt 0.204296 0.398575
vt 0.208620 0.409017
vt 0.262660 0.429237
vt 0.208669 0.420156
vt 0.342385 0.140125
vt 0.366611 0.140125
vt 0.237713 0.451904
vt 0.342385 0.129417
vt 0.342385 0.118710
vt 0.366611 0.118710
vt 0.366611 0.129417
vt 0.239242 0.378160
vt 0.221855 0.386535
vt 0.228398 0.405424
vt 0.245756 0.402709
vt 0.342385 0.118710
vt 0.366611 0.118710
vt 0.366611 0.129418
vt 0.342385 0.140125
vt 0.366611 0.140125
vt 0.342385 0.108003
vt 0.366611 0.108003
vt 0.221855 0.386535
vt 0.208621 0.409017
vt 0.239242 0.378160
vt 0.245756 0.402709
vt 0.342385 0.140125
vt 0.342385 0.129417
vt 0.366611 0.129418
vt 0.366611 0.140125
vt 0.245349 0.427076
vt 0.208669 0.420156
vt 0.342385 0.140125
vt 0.366611 0.140125
vt 0.220894 0.442572
vt 0.239242 0.378160
vt 0.366611 0.108003
vt 0.319415 0.475910
vt 0.316895 0.449198
vt 0.317505 0.421952
vt 0.321016 0.390967
vt 0.447731 0.385462
vt 0.462471 0.400201
vt 0.442336 0.394806
vt 0.442336 0.405597
vt 0.447731 0.414941
vt 0.457076 0.420337
vt 0.467866 0.420337
vt 0.477211 0.414941
vt 0.482606 0.405597
vt 0.482606 0.394806
vt 0.477211 0.385462
vt 0.467866 0.380066
vt 0.457076 0.380066
vt 0.562469 0.147127
vt 0.562468 0.166332
vt 0.562469 0.147127
vt 0.402151 0.166332
vt 0.292688 0.973067
vt 0.363383 0.973067
vt 0.363383 0.992272
vt 0.292688 0.992272
vt 0.568860 0.631050
vt 0.639556 0.631050
vt 0.640748 0.791363
vt 0.567668 0.791363
vt 0.933315 0.003056
vt 0.893729 0.997245
vt 0.851006 0.995970
vt 0.870804 0.001190
vt 0.112680 0.221272
vt 0.112680 0.178481
vt 0.009247 0.178481
vt 0.009247 0.221272
vt 0.745731 0.001190
vt 0.765527 0.995970
vt 0.009247 0.050110
vt 0.009247 0.007319
vt 0.112680 0.007319
vt 0.112680 0.050110
vt 0.112680 0.092900
vt 0.009247 0.092900
vt 0.112680 0.050110
vt 0.112680 0.007319
vt 0.009247 0.007319
vt 0.009247 0.050110
vt 0.808267 0.000567
vt 0.808267 0.995544
vt 0.765527 0.995970
vt 0.745731 0.001190
vt 0.722805 0.997245
vt 0.683219 0.003056
vt 0.680116 0.999371
vt 0.620757 0.006166
vt 0.112680 0.135691
vt 0.009247 0.135691
vt 0.995777 0.006166
vt 0.936418 0.999371
vt 0.893729 0.997245
vt 0.933315 0.003056
vt 0.995777 0.006166
vt 0.936418 0.999371
vt 0.112680 0.264062
vt 0.009247 0.264062
vt 0.009247 0.221272
vt 0.112680 0.221272
vt 0.851006 0.995970
vt 0.870804 0.001190
vt 0.009247 0.092901
vt 0.112680 0.092900
vt 0.009247 0.264063
vt 0.112680 0.264063
vt 0.009247 0.178481
vt 0.112680 0.178481
vt 0.808267 0.000567
vt 0.808267 0.995545
vt 0.009247 0.135691
vt 0.112680 0.135691
vt 0.603367 0.478583
vt 0.599727 0.478583
vt 0.600322 0.336021
vt 0.602769 0.336021
vt 0.603068 0.407302
vt 0.600024 0.407302
s 1
usemtl Chaker
f 1/1/1 2/2/2 4/3/3 3/4/4
f 4/3/3 6/5/5 398/6/6
f 398/6/6 6/5/5 8/7/7 399/8/8
f 399/8/8 8/7/7 10/9/9
f 9/10/10 10/9/9 12/11/11 11/12/12
f 11/12/12 12/11/11 14/13/13 13/14/14
f 13/15/14 14/16/13 16/17/15 15/18/16
f 15/18/16 16/17/15 18/19/17 17/20/18
f 17/20/18 18/19/17 20/21/19 19/22/20
f 19/22/20 20/21/19 22/23/21 21/24/22
f 20/25/23 18/26/24 57/27/25 58/28/26
f 21/24/22 22/23/21 24/29/27 23/30/28
f 23/31/28 24/32/27 2/2/2 1/1/1
f 11/12/12 13/14/14 31/33/29 30/34/30
f 32/35/31 33/36/32 45/37/33 44/38/34
f 9/10/10 11/12/12 30/34/30 29/39/35
f 7/40/36 9/10/10 29/39/35 28/41/37
f 23/31/28 1/1/1 25/42/38 36/43/39
f 1/1/1 3/4/4 26/44/40 25/42/38
f 21/24/22 23/30/28 36/45/39 35/46/41
f 3/4/4 5/47/42 27/48/43 26/44/40
f 19/22/20 21/24/22 35/46/41 34/49/44
f 17/20/18 19/22/20 34/49/44 33/36/32
f 15/18/16 17/20/18 33/36/32 32/35/31
f 13/15/14 15/18/16 32/35/31 31/50/29
f 7/51/45 28/52/46 40/53/47
f 29/39/35 30/34/30 42/54/48 41/55/49
f 36/43/39 25/42/38 37/56/46 48/57/50
f 26/44/40 27/48/43 39/58/51 38/59/52
f 33/36/32 34/49/44 46/60/53 45/37/33
f 30/34/30 31/33/29 43/61/54 42/54/48
f 27/52/48 5/62/55 39/53/56
f 34/49/44 35/46/41 47/63/57 46/60/53
f 31/50/29 32/35/31 44/38/34 43/64/54
f 28/41/37 29/39/35 41/55/49 40/65/58
f 35/46/41 36/45/39 48/66/50 47/63/57
f 25/42/38 26/44/40 38/59/52 37/56/46
f 60/67/59 59/68/60 71/69/61 72/70/62
f 18/26/24 16/71/63 56/72/64 57/27/25
f 16/71/63 14/73/65 55/74/66 56/72/64
f 14/73/65 12/75/67 54/67/68 55/74/66
f 12/75/67 10/76/69 53/68/70 54/67/68
f 10/76/69 8/77/71 52/78/72 53/68/70
f 2/73/73 24/75/74 60/67/59 50/79/75
f 4/80/76 2/73/73 50/79/75 49/72/77
f 8/81/71 6/82/78 51/83/79 52/84/72
f 24/75/74 22/85/80 59/68/60 60/67/59
f 6/82/78 4/80/76 49/72/77 51/83/79
f 22/85/80 20/86/23 58/78/26 59/68/60
f 65/69/81 64/87/82 76/88/83 77/89/84
f 49/72/77 50/79/75 62/90/85 61/91/86
f 57/27/25 56/72/64 68/92/87 69/93/88
f 54/67/68 53/68/70 65/69/81 66/94/89
f 50/79/75 60/67/59 72/70/62 62/90/85
f 51/83/79 49/72/77 61/91/86 63/93/90
f 58/28/26 57/27/25 69/93/88 70/95/91
f 55/74/66 54/67/68 66/94/89 67/96/92
f 52/84/72 51/83/79 63/93/90 64/97/82
f 59/68/60 58/78/26 70/98/91 71/69/61
f 56/72/64 55/74/66 67/96/92 68/92/87
f 53/68/70 52/78/72 64/87/82 65/69/81
f 72/70/62 71/69/61 83/99/93 84/100/94
f 61/91/86 62/90/85 74/101/95 73/102/96
f 69/93/88 68/92/87 80/103/97 81/104/98
f 66/94/89 65/69/81 77/89/84 78/100/99
f 62/90/85 72/70/62 84/100/94 74/101/95
f 63/93/90 61/91/86 73/102/96 75/105/100
f 70/95/91 69/93/88 81/104/98 82/106/101
f 67/96/92 66/94/89 78/100/99 79/107/102
f 64/97/82 63/93/90 75/105/100 76/108/83
f 71/69/61 70/98/91 82/88/101 83/99/93
f 68/92/87 67/96/92 79/107/102 80/103/97
f 110/109/33 109/110/34 104/111/103 105/112/104
f 112/113/48 111/114/49 101/115/105 102/116/106
f 114/117/46 113/118/50 108/119/107 98/120/108
f 116/121/109 115/122/52 97/123/110 99/124/111
f 117/125/53 110/109/33 105/112/104 106/126/112
f 118/127/54 112/113/48 102/116/106 103/128/113
f 119/129/114 116/121/109 99/124/111 100/130/115
f 120/131/57 117/132/53 106/133/112 107/134/116
f 109/110/34 118/127/54 103/128/113 104/111/103
f 111/114/49 119/135/114 100/136/115 101/115/105
f 113/118/50 120/131/57 107/134/116 108/119/107
f 115/122/52 114/117/46 98/120/108 97/123/110
f 85/137/117 86/138/118 114/117/46 115/122/52
f 96/139/119 95/140/120 120/131/57 113/118/50
f 89/124/121 88/141/122 119/135/114 111/114/49
f 92/142/123 91/143/124 118/127/54 109/110/34
f 95/140/120 94/144/125 117/132/53 120/131/57
f 88/145/122 87/115/126 116/121/109 119/129/114
f 91/143/124 90/146/127 112/113/48 118/127/54
f 94/147/125 93/148/128 110/109/33 117/125/53
f 87/115/126 85/137/117 115/122/52 116/121/109
f 86/138/118 96/139/119 113/118/50 114/117/46
f 90/146/127 89/124/121 111/114/49 112/113/48
f 93/148/128 92/142/123 109/110/34 110/109/33
f 96/149/129 86/150/130 74/151/130 84/152/129
f 140/153/131 136/154/132 166/155/133 167/156/134
f 180/157/135 155/158/135 223/159/135 224/160/135
f 163/161/136 162/162/136 214/163/136 231/164/136
f 145/165/137 148/166/137 204/163/137 207/164/137
f 153/165/138 152/166/138 238/163/138 217/164/138
f 156/167/139 179/157/139 221/168/139 222/169/139
f 176/157/140 151/167/140 239/169/140 240/160/140
f 148/167/141 171/170/141 203/171/141 204/172/141
f 142/173/142 141/174/143 148/175/144 145/156/145
f 152/167/146 175/170/146 237/176/146 238/177/146
f 127/178/147 126/179/148 144/180/149 137/181/150
f 130/182/151 129/183/152 143/184/153 135/185/154
f 123/183/155 121/186/156 142/187/142 133/154/157
f 122/183/158 132/186/159 140/187/131 141/174/143
f 126/188/148 125/189/160 139/190/161 144/191/149
f 129/183/152 128/192/162 138/193/163 143/184/153
f 121/182/156 122/183/158 141/174/143 142/173/142
f 132/188/159 131/189/164 136/154/132 140/153/131
f 125/189/160 124/194/165 134/195/166 139/190/161
f 128/188/162 127/178/147 137/181/150 138/196/163
f 131/189/164 130/192/151 135/187/154 136/154/132
f 124/182/165 123/183/155 133/154/157 134/153/166
f 133/154/157 142/187/142 146/197/167 149/198/168
f 143/184/153 138/193/163 160/197/169 161/198/170
f 144/191/149 139/190/161 154/155/171 155/199/172
f 141/174/143 140/187/131 168/197/173 147/200/174
f 135/185/154 143/184/153 162/201/175 163/199/176
f 137/181/150 144/180/149 156/202/177 157/198/178
f 134/153/166 133/154/157 150/201/179 151/156/180
f 136/154/132 135/187/154 164/202/181 165/198/182
f 138/196/163 137/181/150 158/203/183 159/156/184
f 139/190/161 134/195/166 152/202/185 153/204/186
f 145/156/145 146/205/167 142/173/142
f 147/200/174 148/175/144 141/174/143
f 149/198/168 150/201/179 133/154/157
f 151/156/180 152/205/185 134/153/166
f 153/204/186 154/155/171 139/190/161
f 155/199/172 156/206/177 144/191/149
f 157/198/178 158/203/183 137/181/150
f 159/156/184 160/206/169 138/196/163
f 161/198/170 162/201/175 143/184/153
f 163/199/176 164/205/181 135/185/154
f 165/198/182 166/155/133 136/154/132
f 167/156/134 168/206/173 140/153/131
f 165/207/57 190/208/57 189/209/57 166/210/57
f 191/211/50 168/212/50 167/213/50 192/214/50
f 147/207/46 172/208/46 171/209/46 148/210/46
f 169/215/52 146/208/52 145/209/52 170/210/52
f 159/209/34 184/212/34 183/213/34 160/216/34
f 185/209/33 162/210/33 161/207/33 186/214/33
f 153/213/49 178/216/49 177/217/49 154/218/49
f 179/213/48 156/216/48 155/211/48 180/212/48
f 173/213/109 150/214/109 149/211/109 174/212/109
f 187/219/53 164/210/53 163/207/53 188/208/53
f 181/215/54 158/214/54 157/209/54 182/210/54
f 175/215/114 152/214/114 151/209/114 176/210/114
f 154/158/187 177/170/187 219/160/187 220/172/187
f 217/220/58 238/221/58 237/222/58 218/223/58
f 215/224/188 212/225/188 211/222/188 216/223/188
f 223/220/189 220/221/189 219/222/189 224/223/189
f 199/226/190 196/221/190 195/222/190 200/227/190
f 227/222/51 206/228/51 205/226/51 228/229/51
f 231/224/191 214/225/191 213/230/191 232/223/191
f 235/224/192 222/225/192 221/222/192 236/223/192
f 239/224/193 226/221/193 225/222/193 240/223/193
f 193/224/194 230/225/194 229/222/194 194/223/194
f 209/220/195 234/221/195 233/222/195 210/223/195
f 201/222/196 198/231/196 197/226/196 202/221/196
f 207/230/197 204/232/197 203/233/197 208/234/197
f 146/167/198 169/157/198 205/160/198 206/235/198
f 170/170/199 145/158/199 207/177/199 208/171/199
f 150/167/200 173/157/200 225/168/200 226/172/200
f 155/236/201 154/237/201 220/164/201 223/163/201
f 184/170/202 159/167/202 209/235/202 210/238/202
f 165/165/203 164/239/203 230/163/203 193/164/203
f 174/170/204 149/158/204 227/172/204 228/171/204
f 149/165/205 146/166/205 206/240/205 227/164/205
f 190/170/206 165/167/206 193/235/206 194/241/206
f 157/165/207 156/166/207 222/163/207 235/242/207
f 160/167/208 183/157/208 211/168/208 212/169/208
f 164/167/209 187/157/209 229/160/209 230/159/209
f 167/236/210 166/237/210 196/243/210 199/244/210
f 166/167/211 189/157/211 195/168/211 196/169/211
f 188/157/212 163/167/212 231/159/212 232/171/212
f 162/158/213 185/157/213 213/168/213 214/169/213
f 147/161/214 168/162/214 198/163/214 201/164/214
f 159/161/215 158/162/215 234/163/215 209/164/215
f 186/170/216 161/167/216 215/245/216 216/241/216
f 168/167/217 191/170/217 197/171/217 198/235/217
f 158/167/218 181/157/218 233/168/218 234/169/218
f 178/246/219 153/158/219 217/172/219 218/168/219
f 192/246/220 167/167/220 199/245/220 200/160/220
f 182/170/221 157/167/221 235/235/221 236/238/221
f 151/237/222 150/236/222 226/244/222 239/243/222
f 172/170/223 147/158/223 201/235/223 202/238/223
f 161/239/224 160/247/224 212/164/224 215/163/224
f 236/248/225 233/249/226 181/250/227 182/251/227
f 221/249/228 179/250/227 180/251/227 224/248/229
f 218/248/230 219/252/231 177/250/227 178/253/227
f 240/248/232 237/252/233 175/250/227 176/253/227
f 228/248/234 225/252/235 173/250/227 174/253/227
f 208/252/236 205/248/237 169/251/227 170/250/227
f 202/248/238 203/252/239 171/250/227 172/251/227
f 200/252/240 197/248/241 191/253/227 192/250/227
f 194/248/242 195/252/243 189/250/227 190/253/227
f 232/248/244 229/252/245 187/250/227 188/253/227
f 216/248/246 213/252/247 185/250/227 186/251/227
f 210/248/248 211/252/249 183/250/227 184/251/227
f 218/254/230 249/255/250 250/256/251 219/257/231
f 233/258/226 246/259/252 210/260/248
f 216/261/246 247/262/253 248/256/254 213/263/247
f 195/257/243 242/256/255 200/260/240
f 240/264/232 252/265/256 249/266/250 237/267/233
f 203/268/239 244/269/257 208/270/236
f 210/260/248 246/259/252 247/271/253 211/267/249
f 237/267/233 249/266/250 218/272/230
f 228/254/234 245/262/258 252/265/256 225/273/235
f 211/267/249 247/271/253 216/272/246
f 208/270/236 244/269/257 245/274/258 205/275/237
f 205/275/237 245/274/258 228/272/234
f 219/257/231 250/256/251 224/260/229
f 202/276/238 243/277/259 244/269/257 203/268/239
f 213/263/247 248/256/254 232/260/244
f 200/260/240 242/256/255 243/274/259 197/278/241
f 197/278/241 243/274/259 202/272/238
f 236/261/225 251/279/260 246/259/252 233/258/226
f 221/267/228 251/274/260 236/272/225
f 194/254/242 241/255/261 242/256/255 195/257/243
f 229/267/245 241/274/261 194/272/242
f 224/260/229 250/256/251 251/274/260 221/267/228
f 232/260/244 248/256/254 241/274/261 229/267/245
f 225/273/235 252/265/256 240/264/232
f 250/256/251 262/280/262 263/281/263 251/274/260
f 248/256/254 260/282/264 253/283/265 241/274/261
f 249/255/250 261/284/266 262/280/262 250/256/251
f 247/262/253 259/284/267 260/282/264 248/256/254
f 252/265/256 264/282/268 261/283/266 249/266/250
f 246/259/252 258/285/269 259/281/267 247/271/253
f 245/262/258 257/284/270 264/282/268 252/265/256
f 244/269/257 256/286/271 257/287/270 245/274/258
f 243/277/259 255/288/272 256/286/271 244/269/257
f 242/256/255 254/280/273 255/287/272 243/274/259
f 251/279/260 263/289/263 258/285/269 246/259/252
f 241/255/261 253/290/265 254/280/273 242/256/255
f 256/286/271 268/291/274 269/292/275 257/287/270
f 255/288/272 267/293/276 268/291/274 256/286/271
f 254/280/273 266/294/277 267/292/276 255/287/272
f 263/289/263 275/295/278 270/296/279 258/285/269
f 253/290/265 265/297/280 266/294/277 254/280/273
f 262/280/262 274/296/281 275/292/278 263/281/263
f 260/282/264 272/296/282 265/292/280 253/283/265
f 261/284/266 273/298/283 274/296/281 262/280/262
f 259/284/267 271/299/284 272/296/282 260/282/264
f 264/282/268 276/300/285 273/292/283 261/283/266
f 258/285/269 270/296/279 271/301/284 259/281/267
f 257/284/270 269/299/275 276/300/285 264/282/268
f 274/302/286 286/303/286 287/304/287 275/305/287
f 272/306/288 284/307/288 277/308/289 265/309/289
f 273/310/290 285/308/290 286/303/286 274/302/286
f 271/311/291 283/303/291 284/312/288 272/313/288
f 276/314/292 288/315/292 285/308/290 273/310/290
f 270/309/293 282/308/293 283/303/291 271/311/291
f 269/316/294 281/317/294 288/304/292 276/305/292
f 268/318/295 280/319/295 281/317/294 269/316/294
f 267/320/296 279/315/296 280/319/295 268/318/295
f 266/311/297 278/303/297 279/312/296 267/321/296
f 275/322/287 287/307/287 282/308/293 270/309/293
f 265/309/289 277/308/289 278/303/297 266/311/297
f 280/323/298 292/324/298 293/325/298 281/326/298
f 279/327/298 291/328/298 292/324/298 280/323/298
f 278/329/298 290/330/298 291/328/298 279/327/298
f 287/331/298 299/332/298 294/333/298 282/334/298
f 277/335/298 289/336/298 290/330/298 278/329/298
f 286/337/298 298/338/298 299/332/298 287/331/298
f 284/339/298 296/340/298 289/336/298 277/335/298
f 285/341/298 297/342/298 298/338/298 286/337/298
f 283/343/298 295/344/298 296/340/298 284/339/298
f 288/345/298 300/346/298 297/342/298 285/341/298
f 282/334/298 294/333/298 295/344/298 283/343/298
f 281/326/298 293/325/298 300/346/298 288/345/298
f 268/347/299 304/348/299 305/349/300 269/350/300
f 267/351/301 303/352/301 304/348/299 268/347/299
f 266/353/302 302/354/302 303/352/301 267/351/301
f 275/355/303 311/356/303 306/357/304 270/358/304
f 265/359/305 301/360/305 302/354/302 266/353/302
f 274/361/306 310/362/306 311/356/303 275/355/303
f 272/363/307 308/364/307 301/360/305 265/359/305
f 273/365/308 309/366/308 310/362/306 274/361/306
f 271/367/309 307/368/309 308/364/307 272/363/307
f 276/369/310 312/370/310 309/366/308 273/365/308
f 270/358/304 306/357/304 307/368/309 271/367/309
f 269/350/300 305/349/300 312/370/310 276/369/310
f 308/371/191 320/372/191 313/373/194 301/374/194
f 309/375/58 321/376/58 322/377/189 310/378/189
f 307/378/188 319/377/188 320/379/191 308/380/191
f 312/381/193 324/382/193 321/376/58 309/375/58
f 306/375/195 318/376/195 319/377/188 307/378/188
f 305/383/51 317/384/51 324/385/193 312/386/193
f 304/387/197 316/388/197 317/384/51 305/383/51
f 303/389/196 315/390/196 316/388/197 304/387/197
f 302/391/190 314/392/190 315/393/196 303/394/196
f 311/381/192 323/382/192 318/376/195 306/375/195
f 301/374/194 313/373/194 314/392/190 302/391/190
f 310/378/189 322/377/189 323/379/192 311/380/192
f 320/395/311 332/396/312 325/397/313 313/398/314
f 315/395/315 327/396/316 328/397/317 316/398/318
f 314/399/319 326/400/320 327/401/316 315/402/315
f 316/398/318 328/397/317 329/400/321 317/399/322
f 318/398/323 330/397/324 331/400/325 319/399/326
f 317/399/322 329/400/321 336/401/327 324/402/328
f 319/399/326 331/400/325 332/401/312 320/402/311
f 322/399/329 334/400/330 335/401/331 323/402/332
f 324/395/328 336/396/327 333/397/333 321/398/334
f 321/398/334 333/397/333 334/400/330 322/399/329
f 313/398/314 325/397/313 326/400/320 314/399/319
f 323/395/332 335/396/331 330/397/324 318/398/323
f 384/403/335 383/404/336 340/405/337 341/406/338
f 337/407/339 382/408/340 338/409/341 339/410/342
f 383/404/336 337/407/339 339/410/342 340/405/337
f 354/411/192 350/412/189 388/413/343 389/414/344
f 340/405/337 339/410/342 343/415/345 344/416/346
f 350/412/189 346/417/58 387/418/347 388/413/343
f 341/406/338 340/405/337 344/416/346 345/419/348
f 339/410/342 338/409/341 342/420/349 343/415/345
f 344/421/346 343/422/345 347/423/350 348/404/351
f 370/424/194 366/425/191 393/426/352 394/427/353
f 345/428/348 344/421/346 348/404/351 349/429/354
f 343/422/345 342/430/349 346/431/355 347/423/350
f 349/429/354 348/404/351 352/405/356 353/432/357
f 347/423/350 346/431/355 350/433/358 351/410/359
f 348/404/351 347/423/350 351/410/359 352/405/356
f 346/417/58 342/434/193 385/435/360 387/418/347
f 353/432/357 352/405/356 356/436/361 357/419/362
f 351/410/359 350/433/358 354/420/363 355/415/364
f 352/405/356 351/410/359 355/415/364 356/436/361
f 338/437/51 382/438/197 397/439/365 386/440/366
f 356/441/361 355/442/364 359/443/367 360/444/368
f 362/417/188 358/445/195 390/446/369 391/447/370
f 357/428/362 356/441/361 360/444/368 361/429/371
f 355/442/364 354/430/363 358/408/372 359/443/367
f 360/444/368 359/443/367 363/410/373 364/405/374
f 342/448/193 338/437/51 386/440/366 385/449/360
f 361/429/371 360/444/368 364/405/374 365/406/375
f 359/443/367 358/408/372 362/409/376 363/410/373
f 365/406/375 364/405/374 368/436/377 369/419/378
f 363/410/373 362/409/376 366/420/379 367/415/380
f 364/405/374 363/410/373 367/415/380 368/436/377
f 382/438/197 378/450/196 396/451/381 397/439/365
f 367/452/380 366/430/379 370/453/382 371/407/383
f 368/454/377 367/452/380 371/407/383 372/455/384
f 378/456/196 374/457/190 395/458/385 396/459/381
f 369/428/378 368/454/377 372/455/384 373/403/386
f 372/455/384 371/407/383 375/410/387 376/460/388
f 374/457/190 370/424/194 394/427/353 395/458/385
f 373/403/386 372/455/384 376/460/388 377/406/389
f 371/407/383 370/453/382 374/461/390 375/410/387
f 366/462/191 362/417/188 391/447/370 393/463/352
f 377/406/389 376/460/388 380/416/391 381/419/392
f 375/410/387 374/461/390 378/420/393 379/464/394
f 376/460/388 375/410/387 379/464/394 380/416/391
f 381/428/392 380/465/391 383/404/336 384/403/335
f 379/442/394 378/430/393 382/408/340 337/407/339
f 380/465/391 379/442/394 337/407/339 383/404/336
f 358/445/195 354/411/192 389/466/344 390/446/369
f 333/397/333 336/396/327 345/467/395 349/468/396
f 336/401/327 329/400/321 341/469/397 345/470/395
f 328/397/317 384/468/398 341/469/397 329/400/321
f 327/396/316 381/467/399 384/468/398 328/397/317
f 326/400/320 377/469/400 381/470/399 327/401/316
f 326/400/320 325/397/313 373/468/401 377/469/400
f 325/397/313 332/396/312 369/467/402 373/468/401
f 331/400/325 365/469/403 369/470/402 332/401/312
f 330/397/324 361/468/404 365/469/403 331/400/325
f 330/397/324 335/396/331 357/467/405 361/468/404
f 334/400/330 353/469/406 357/470/405 335/401/331
f 333/397/333 349/468/396 353/469/406 334/400/330
f 397/471/365 392/472/298 386/473/366
f 386/473/366 392/472/298 385/474/360
f 385/474/360 392/472/298 387/475/347
f 387/475/347 392/472/298 388/476/343
f 388/476/343 392/472/298 389/477/344
f 389/477/344 392/472/298 390/478/369
f 390/478/369 392/472/298 391/479/370
f 391/479/370 392/472/298 393/480/352
f 393/480/352 392/472/298 394/481/353
f 394/481/353 392/472/298 395/482/385
f 395/482/385 392/472/298 396/483/381
f 396/483/381 392/472/298 397/471/365
f 399/8/8 10/9/9 9/10/10
f 3/4/4 4/3/3 398/6/6
f 7/40/36 399/8/8 9/10/10
f 5/47/42 3/4/4 398/6/6
f 399/484/407 7/51/408 401/485/409
f 5/62/55 398/486/410 400/485/411
f 5/62/55 400/485/411 403/487/412
f 7/51/45 40/53/47 402/487/413
f 398/488/227 399/489/227 401/490/227 400/491/227
f 400/492/193 401/493/193 402/494/193 403/495/193
f 39/53/414 5/62/55 403/487/412
f 401/485/409 7/51/408 402/487/413
f 73/496/415 85/497/415 87/498/416 75/499/416
f 108/500/50 107/501/57 131/502/57 132/503/50
f 96/149/129 84/152/129 83/504/417 95/505/417
f 97/506/52 98/507/46 122/508/46 121/509/52
f 97/506/52 121/509/52 123/510/109 99/511/109
f 104/512/34 103/513/54 127/514/54 128/515/34
f 76/516/418 88/517/418 89/518/419 77/519/419
f 77/519/419 89/518/419 90/520/420 78/521/420
f 90/520/420 91/522/421 79/523/421 78/521/420
f 106/524/53 130/525/53 131/502/57 107/501/57
f 79/526/421 91/527/421 92/528/422 80/529/422
f 74/530/130 86/531/130 85/497/415 73/496/415
f 127/532/54 103/533/54 102/534/48 126/535/48
f 80/529/422 92/528/422 93/536/423 81/537/423
f 104/512/34 128/515/34 129/538/33 105/539/33
f 122/540/46 98/541/46 108/500/50 132/503/50
f 102/534/48 101/542/49 125/543/49 126/535/48
f 82/544/424 94/545/424 95/505/417 83/504/417
f 75/499/416 87/498/416 88/517/418 76/516/418
f 100/546/114 124/547/114 125/543/49 101/542/49
f 99/511/109 123/510/109 124/547/114 100/546/114
f 105/539/33 129/538/33 130/525/53 106/524/53
f 81/537/423 93/536/423 94/545/424 82/544/424
f 404/548/191 405/549/191 407/550/191 406/551/191
f 444/552/425 445/553/425 411/550/425 410/551/425
f 446/553/426 447/552/426 415/548/426 414/549/426
f 448/552/427 449/553/427 419/550/427 418/551/427
f 450/552/428 451/553/428 423/550/428 422/551/428
f 424/548/196 425/549/196 427/550/196 426/551/196
f 452/552/192 453/553/192 431/550/192 430/551/192
f 454/553/191 455/552/191 435/548/191 434/549/191
f 456/552/196 457/553/196 439/550/196 438/551/196
f 458/552/193 459/553/193 443/550/193 442/551/193
f 440/548/193 441/549/193 459/553/193 458/552/193
f 436/548/196 437/549/196 457/553/196 456/552/196
f 432/550/191 433/551/191 455/552/191 454/553/191
f 428/548/192 429/549/192 453/553/192 452/552/192
f 420/548/429 421/549/429 451/553/429 450/552/429
f 416/548/430 417/549/430 449/553/430 448/552/430
f 412/550/431 413/551/431 447/552/431 446/553/431
f 408/548/432 409/549/432 445/553/432 444/552/432
